<svg xmlns="http://www.w3.org/2000/svg" xmlns:xlink="http://www.w3.org/1999/xlink" width="253.704" height="193.568" viewBox="0 0 253.704 193.568"><defs><clipPath id="a"><rect width="229.069" height="178.502" fill="none"/></clipPath><clipPath id="b"><path d="M188.88,53.878c-8.822,13.625-18.765,26.757-60.227,32.658-13.891,1.985-16.248,10.979-5.78,23.1,6.465,7.491,15.451,20.207,16.9,30.516,19.065-6.763,39.414-19.9,47.77-26.94,2.09-9.727,3.883-21.242,3.883-21.242-10.7,11.228-18.4,16.334-19.583,17.165,12.966-10.9,51.2-62.3,28.593-101.8,0,0,4.34,22.038-11.553,46.542" fill="none"/></clipPath><linearGradient id="c" x1="-0.553" y1="1.119" x2="-0.547" y2="1.119" gradientUnits="objectBoundingBox"><stop offset="0" stop-color="#8dc63f"/><stop offset="1" stop-color="#006838"/></linearGradient><clipPath id="d"><path d="M128.172,53.482c-3.366,1.917-8.509,4.88-10.728,6.34-3.211,2.113-.443,4.976,8.787,5.273,6.977.225,14.671-1.526,19.039-4.836l.008,0a34.538,34.538,0,0,1-10.931,5.858c1.975,5.241,4.612,10.893,7.235,12.862,10,7.479,19.318-6.24,20.266-17.133,1.327-14.941-3.017-23.15-13.553-24.612a15.588,15.588,0,0,0-2.131-.144c-8.485,0-17.848,6.584-17.994,16.389" fill="none"/></clipPath><linearGradient id="e" x1="-1.597" y1="2.254" x2="-1.584" y2="2.254" xlink:href="#c"/><clipPath id="f"><path d="M0,124.791v.221a52.007,52.007,0,0,0,4.038,20.251C10.78,161.257,25.2,172.521,44.005,178.5a45.842,45.842,0,0,1,6.2-24.96c-17.894-4.184-31.287-13.24-37.015-26.82C1.272,98.471,26.414,59.841,70.97,33.6,27.733,56.075.064,92.411,0,124.791" fill="none"/></clipPath><linearGradient id="g" x1="0.227" y1="0.949" x2="0.233" y2="0.949" xlink:href="#c"/><clipPath id="h"><path d="M144.874,140.882c-1.92.823-3.841,1.6-5.753,2.351h47.9c27.943-23.217,43.462-52.558,40.039-78.377-8.192,27.678-39.212,57.7-82.186,76.026" fill="none"/></clipPath><linearGradient id="i" x1="-1.078" y1="1.165" x2="-1.071" y2="1.165" xlink:href="#c"/><clipPath id="j"><path d="M205.624,19.939s10.065,2.9,14.415,13.037c10.783,25.144-14.23,63.81-14.23,63.81S228.985,71.1,229.069,44.117v-.3a41.67,41.67,0,0,0-2.521-14.4c-5.62-15.218-25.038-19.5-25.038-19.5Z" fill="none"/></clipPath><linearGradient id="k" x1="-2.771" y1="1.881" x2="-2.759" y2="1.881" xlink:href="#c"/><clipPath id="l"><path d="M191.682,0c-4.038.017-7.086,3.234-8.082,7.048-10.847-1.134-48.875-3.172-87.514,13.971-23.411,10.388-58.411,33.528-50.4,43.62,7.041,8.866,25.155-6.58,18.083-12.962-7.262-6.556-15.637,6.7-15.637,6.7-.6-1.149.8-3.305,3.488-5.992,1.16-1.129,5.513-4.915,10.908-4.01,0,0-.339-2.66,2.154-5.81a12.792,12.792,0,0,1,2.947-2.663A166.406,166.406,0,0,1,85.747,29.289C130.254,7.373,174.165,11.828,184,13.454a8.707,8.707,0,0,0,.684,1.277c2.223,3.42,5.779,3.172,8.608,4.857,3.42,2.038,4.657,7.353,4.509,10.762,0,0,2.168-9.666,2.169-16.563,0-3.936-.632-11.4-5.068-13.149A8.691,8.691,0,0,0,191.746,0Z" fill="none"/></clipPath><linearGradient id="m" x1="-0.169" y1="1.506" x2="-0.164" y2="1.506" xlink:href="#c"/></defs><g transform="translate(-70 -20)"><g transform="translate(70 20)"><g clip-path="url(#a)"><g clip-path="url(#b)"><rect width="159.314" height="169.285" transform="translate(58.074 35.965) rotate(-27.652)" fill="url(#c)"/></g><g clip-path="url(#d)"><rect width="66.142" height="66.573" transform="translate(94.039 47.733) rotate(-27.652)" fill="url(#e)"/></g><g clip-path="url(#f)"><rect width="129.767" height="161.474" transform="translate(-59.273 64.836) rotate(-27.652)" fill="url(#g)"/></g><g clip-path="url(#h)"><rect width="117.106" height="112.069" transform="translate(107.06 81.751) rotate(-27.652)" fill="url(#i)"/></g><g clip-path="url(#j)"><rect width="66.075" height="90.626" transform="translate(165.975 28.643) rotate(-27.652)" fill="url(#k)"/></g><g clip-path="url(#l)"><rect width="177.677" height="140.862" transform="translate(7.607 15.844) rotate(-27.652)" fill="url(#m)"/></g></g><path d="M4.038,145.263A52.008,52.008,0,0,1,0,125.012v-.221C.064,92.411,27.733,56.075,70.97,33.6,26.414,59.841,1.272,98.471,13.19,126.721,18.917,140.3,32.31,149.357,50.2,153.541a45.843,45.843,0,0,0-6.2,24.96C25.2,172.521,10.78,161.257,4.038,145.263Zm135.083-2.03c1.912-.751,3.833-1.529,5.753-2.352,42.974-18.327,73.994-48.348,82.186-76.026,3.423,25.819-12.1,55.161-40.039,78.377Zm-16.248-33.6c-10.468-12.123-8.111-21.116,5.78-23.1,41.461-5.9,51.4-19.032,60.227-32.658,15.893-24.5,11.553-46.542,11.553-46.542Q201.19,8.66,201.859,10c2.641.663,19.514,5.405,24.689,19.417a41.668,41.668,0,0,1,2.521,14.4v.3c-.084,26.983-23.261,52.669-23.261,52.669s25.013-38.665,14.23-63.81c-4.35-10.142-14.415-13.037-14.415-13.037l-.078-.19c9.948,37.157-22.064,79.6-33.705,89.387,1.182-.831,8.884-5.936,19.583-17.165,0,0-1.793,11.515-3.883,21.242-8.356,7.04-28.7,20.177-47.77,26.94C138.324,129.845,129.338,117.129,122.873,109.637Zm24.533-28.521a9.657,9.657,0,0,1-5.822-2.136c-2.623-1.969-5.26-7.622-7.235-12.862A34.536,34.536,0,0,0,145.28,60.26l-.008,0c-4.368,3.31-12.062,5.062-19.039,4.836-9.231-.3-12-3.161-8.787-5.273,2.219-1.46,7.362-4.423,10.728-6.34.145-9.8,9.509-16.389,17.993-16.389a15.618,15.618,0,0,1,2.131.144c10.535,1.461,14.879,9.67,13.553,24.612-.759,8.727-6.893,19.268-14.443,19.269Zm0,0h0Zm-96.04-13.8a6.959,6.959,0,0,1-5.676-2.679c-8.014-10.091,26.986-33.231,50.4-43.62C134.725,3.875,172.753,5.914,183.6,7.047c1-3.814,4.044-7.031,8.082-7.047h.064A8.691,8.691,0,0,1,194.9.639c4.436,1.748,5.068,9.212,5.068,13.149,0,6.9-2.169,16.563-2.169,16.563.148-3.409-1.089-8.724-4.509-10.762-2.828-1.686-6.385-1.438-8.608-4.857A8.7,8.7,0,0,1,184,13.454c-9.838-1.626-53.749-6.081-98.256,15.836A166.413,166.413,0,0,0,67.632,39.906a12.793,12.793,0,0,0-2.947,2.663c-2.494,3.151-2.154,5.81-2.154,5.81-5.395-.906-9.747,2.881-10.908,4.009-2.69,2.687-4.091,4.843-3.488,5.992,0,0,8.374-13.261,15.637-6.7,5.56,5.018-4.45,15.64-12.4,15.641Z" fill="#023c11"/><text transform="translate(161.704 164.479)" fill="#87630a" font-size="14" font-family="Montserrat-Bold, Montserrat" font-weight="700" letter-spacing="0.025em"><tspan x="-82.446" y="0">PROFESSIONAL GOLF</tspan><tspan x="-91.819" y="16">DEVELOPMENTAL TOUR</tspan></text><text transform="translate(161.554 191.568)" fill="#023f11" font-size="10" font-family="Helvetica" letter-spacing="-0.04em"><tspan x="-85.009" y="0">PGD TOUR PROMOTED BY </tspan><tspan y="0">meristem</tspan></text></g></g></svg>