<svg xmlns="http://www.w3.org/2000/svg" xmlns:xlink="http://www.w3.org/1999/xlink" width="221.229" height="169.622" viewBox="0 0 221.229 169.622"><defs><clipPath id="a"><rect width="201.48" height="156.189" fill="none"/></clipPath><clipPath id="b"><path d="M166.131,47.144c-7.76,11.922-16.505,23.413-52.973,28.575-12.218,1.737-14.291,9.607-5.084,20.214,5.686,6.555,13.59,17.681,14.862,26.7,16.769-5.918,34.667-17.413,42.017-23.573,1.838-8.511,3.416-18.587,3.416-18.587-9.41,9.825-16.185,14.292-17.224,15.019,11.4-9.536,45.033-54.515,25.149-89.075,0,0,3.817,19.283-10.162,40.724" fill="none"/></clipPath><linearGradient id="c" x1="-0.553" y1="1.119" x2="-0.547" y2="1.119" gradientUnits="objectBoundingBox"><stop offset="0" stop-color="#8dc63f"/><stop offset="1" stop-color="#006838"/></linearGradient><clipPath id="d"><path d="M112.736,46.8c-2.96,1.677-7.484,4.27-9.436,5.547-2.824,1.849-.39,4.354,7.729,4.614,6.137.2,12.9-1.335,16.746-4.232h.007a30.42,30.42,0,0,1-9.614,5.126c1.737,4.586,4.057,9.532,6.364,11.254,8.795,6.544,16.991-5.46,17.825-14.991,1.167-13.074-2.654-20.256-11.92-21.535a13.781,13.781,0,0,0-1.874-.126c-7.463,0-15.7,5.761-15.826,14.341" fill="none"/></clipPath><linearGradient id="e" x1="-1.597" y1="2.254" x2="-1.584" y2="2.254" xlink:href="#c"/><clipPath id="f"><path d="M0,109.192v.193a45.3,45.3,0,0,0,3.552,17.72c5.93,13.994,18.609,23.851,35.154,29.084a39.951,39.951,0,0,1,5.452-21.84c-15.739-3.661-27.519-11.585-32.557-23.468C1.119,86.162,23.233,52.361,62.423,29.4,24.393,49.066.056,80.86,0,109.192" fill="none"/></clipPath><linearGradient id="g" x1="0.227" y1="0.949" x2="0.233" y2="0.949" xlink:href="#c"/><clipPath id="h"><path d="M127.426,123.272c-1.689.72-3.379,1.4-5.061,2.057H164.5c24.578-20.315,38.228-45.988,35.216-68.58-7.205,24.218-34.489,50.486-72.287,66.523" fill="none"/></clipPath><linearGradient id="i" x1="-1.078" y1="1.165" x2="-1.071" y2="1.165" xlink:href="#c"/><clipPath id="j"><path d="M180.859,17.447a21.444,21.444,0,0,1,12.679,11.407c9.484,22-12.516,55.834-12.516,55.834S201.407,62.212,201.48,38.6v-.26a36.291,36.291,0,0,0-2.218-12.6C194.32,12.427,177.24,8.679,177.24,8.679Z" fill="none"/></clipPath><linearGradient id="k" x1="-2.771" y1="1.881" x2="-2.759" y2="1.881" xlink:href="#c"/><clipPath id="l"><path d="M168.6,0c-3.552.015-6.233,2.83-7.108,6.167-9.541-.992-42.989-2.776-76.974,12.225-20.591,9.09-51.376,29.337-44.327,38.167,6.193,7.758,22.125-5.758,15.905-11.342-6.388-5.736-13.754,5.867-13.754,5.867-.53-1.005.7-2.892,3.068-5.243,1.021-.988,4.849-4.3,9.594-3.508a7.369,7.369,0,0,1,1.895-5.084,11.231,11.231,0,0,1,2.592-2.33,146.545,146.545,0,0,1,15.933-9.29c39.147-19.177,77.769-15.279,86.423-13.856a7.607,7.607,0,0,0,.6,1.118c1.955,2.992,5.083,2.775,7.571,4.25,3.008,1.783,4.1,6.434,3.966,9.417,0,0,1.907-8.458,1.907-14.493,0-3.444-.556-9.976-4.458-11.505A7.679,7.679,0,0,0,168.652,0Z" fill="none"/></clipPath><linearGradient id="m" x1="-0.169" y1="1.506" x2="-0.164" y2="1.506" xlink:href="#c"/></defs><g opacity="0.478"><g clip-path="url(#a)"><g clip-path="url(#b)"><rect width="140.142" height="148.109" transform="matrix(0.886, -0.464, 0.464, 0.886, 51.08, 31.47)" fill="url(#c)"/></g><g clip-path="url(#d)"><rect width="58.182" height="58.245" transform="matrix(0.886, -0.464, 0.464, 0.886, 82.713, 41.767)" fill="url(#e)"/></g><g clip-path="url(#f)"><rect width="114.15" height="141.275" transform="matrix(0.886, -0.464, 0.464, 0.886, -52.134, 56.731)" fill="url(#g)"/></g><g clip-path="url(#h)"><rect width="103.013" height="98.05" transform="matrix(0.886, -0.464, 0.464, 0.886, 94.165, 71.532)" fill="url(#i)"/></g><g clip-path="url(#j)"><rect width="58.123" height="79.29" transform="matrix(0.886, -0.464, 0.464, 0.886, 145.986, 25.063)" fill="url(#k)"/></g><g clip-path="url(#l)"><rect width="156.294" height="123.241" transform="matrix(0.886, -0.464, 0.464, 0.886, 6.691, 13.863)" fill="url(#m)"/></g></g><path d="M3.552,127.105A45.3,45.3,0,0,1,0,109.386v-.193C.056,80.86,24.393,49.066,62.423,29.4c-39.19,22.958-61.3,56.76-50.822,81.478,5.038,11.883,16.818,19.807,32.557,23.468a39.951,39.951,0,0,0-5.453,21.84C22.161,150.956,9.481,141.1,3.552,127.105Zm118.814-1.776c1.682-.657,3.371-1.338,5.06-2.058,37.8-16.036,65.082-42.3,72.287-66.523,3.011,22.592-10.639,48.266-35.216,68.58Zm-14.291-29.4c-9.207-10.607-7.134-18.477,5.084-20.214,36.468-5.163,45.213-16.653,52.973-28.575C180.11,25.7,176.293,6.42,176.293,6.42q.666,1.158,1.254,2.333c2.323.58,17.164,4.729,21.715,16.99a36.291,36.291,0,0,1,2.218,12.6v.26c-.074,23.61-20.459,46.085-20.459,46.085s22-33.832,12.516-55.834a21.444,21.444,0,0,0-12.678-11.407l-.069-.166c8.75,32.512-19.406,69.652-29.646,78.214,1.04-.727,7.814-5.194,17.224-15.019,0,0-1.577,10.076-3.416,18.586-7.35,6.16-25.248,17.655-42.017,23.573C121.665,113.614,113.761,102.488,108.074,95.933Zm21.578-24.956a8.521,8.521,0,0,1-5.121-1.869c-2.307-1.723-4.627-6.669-6.364-11.254a30.418,30.418,0,0,0,9.614-5.126h-.007c-3.842,2.9-10.609,4.429-16.746,4.232-8.119-.26-10.553-2.766-7.729-4.614,1.951-1.277,6.475-3.87,9.436-5.547.128-8.579,8.364-14.341,15.826-14.341a13.808,13.808,0,0,1,1.874.126c9.267,1.279,13.087,8.462,11.92,21.535-.668,7.636-6.063,16.859-12.7,16.86Zm0,0h0ZM45.179,58.9a6.134,6.134,0,0,1-4.993-2.344c-7.049-8.83,23.736-29.078,44.327-38.167,33.985-15,67.433-13.217,76.974-12.225C162.364,2.83,165.045.015,168.6,0h.056a7.679,7.679,0,0,1,2.779.559c3.9,1.53,4.458,8.061,4.458,11.505,0,6.035-1.907,14.493-1.907,14.493.13-2.983-.958-7.634-3.966-9.417-2.488-1.475-5.616-1.258-7.571-4.25a7.6,7.6,0,0,1-.6-1.118c-8.653-1.423-47.276-5.321-86.423,13.856a146.55,146.55,0,0,0-15.933,9.29,11.232,11.232,0,0,0-2.592,2.33A7.37,7.37,0,0,0,55,42.332c-4.745-.793-8.573,2.521-9.594,3.508-2.366,2.351-3.6,4.238-3.068,5.243,0,0,7.366-11.6,13.754-5.867C60.982,49.608,52.178,58.9,45.181,58.9Z" fill="#fff"/><text transform="translate(142.229 143.919)" fill="#fff" font-size="12" font-family="Montserrat-Bold, Montserrat" font-weight="700" letter-spacing="0.025em"><tspan x="-70.668" y="0">PROFESSIONAL GOLF</tspan><tspan x="-78.702" y="14">DEVELOPMENTAL TOUR</tspan></text><text transform="translate(142.097 167.622)" fill="#fefefe" font-size="9" font-family="Helvetica" letter-spacing="-0.04em"><tspan x="-76.508" y="0">PGD TOUR PROMOTED BY </tspan><tspan y="0">meristem</tspan></text></g></svg>