<svg id="svg" version="1.1" xmlns="http://www.w3.org/2000/svg" xmlns:xlink="http://www.w3.org/1999/xlink" width="400" height="346.8208092485549" viewBox="0, 0, 400,346.8208092485549"><g id="svgg"><path id="path0" d="M152.833 237.484 C 148.859 238.785,147.560 244.057,150.445 247.176 C 152.104 248.968,154.925 249.475,157.167 248.382 C 161.410 246.315,161.460 239.942,157.248 237.834 C 156.363 237.391,153.751 237.183,152.833 237.484 M185.206 237.556 C 183.686 238.107,182.835 239.284,182.835 240.833 C 182.835 242.727,183.638 243.513,186.333 244.256 C 187.204 244.496,188.039 244.730,188.188 244.777 C 188.669 244.927,188.859 245.598,188.534 245.999 C 187.896 246.786,185.828 246.721,184.301 245.865 C 183.395 245.357,183.431 245.338,182.911 246.610 L 182.513 247.583 182.860 247.849 C 185.992 250.248,191.381 248.703,191.381 245.406 C 191.381 243.478,190.366 242.652,186.917 241.768 C 185.431 241.388,184.983 240.443,186.031 239.901 C 186.712 239.549,188.283 239.662,189.326 240.138 C 190.180 240.528,190.210 240.507,190.723 239.167 C 191.003 238.435,191.001 238.410,190.665 238.135 C 189.792 237.420,186.533 237.075,185.206 237.556 M195.088 237.599 C 193.235 238.278,192.332 240.462,193.155 242.276 C 193.550 243.145,194.530 243.747,196.285 244.197 C 198.361 244.728,199.063 245.259,198.668 245.998 C 198.510 246.294,198.301 246.382,197.315 246.572 C 196.745 246.681,195.052 246.297,194.387 245.908 C 193.441 245.354,193.429 245.360,193.030 246.527 C 192.608 247.762,192.600 247.746,193.981 248.386 C 197.857 250.184,202.247 247.891,201.344 244.541 C 200.974 243.165,200.405 242.756,197.782 241.977 C 195.515 241.305,195.022 240.817,195.851 240.067 C 196.363 239.605,198.300 239.634,199.368 240.119 L 200.153 240.475 200.577 239.551 C 200.810 239.042,201.000 238.531,201.000 238.416 C 201.000 237.575,196.755 236.989,195.088 237.599 M212.333 237.526 C 212.104 237.628,211.658 237.825,211.342 237.963 C 206.069 240.264,208.238 248.882,214.098 248.910 C 220.192 248.938,222.178 240.500,216.712 237.808 C 215.805 237.362,213.094 237.187,212.333 237.526 M264.583 237.452 C 264.400 237.496,264.179 237.600,264.092 237.683 C 264.005 237.766,263.831 237.833,263.706 237.833 C 263.440 237.833,262.347 238.620,262.038 239.033 C 261.921 239.189,261.730 239.414,261.613 239.533 C 260.542 240.620,260.192 243.881,260.965 245.570 C 262.283 248.453,265.705 249.746,268.750 248.511 C 270.615 247.755,270.500 247.970,270.500 245.231 L 270.500 242.833 269.333 242.833 L 268.167 242.833 268.167 244.425 L 268.167 246.017 267.589 246.259 C 264.037 247.743,261.431 242.186,264.763 240.234 C 265.915 239.558,268.439 239.879,268.770 240.743 C 268.937 241.178,269.255 241.035,270.078 240.155 L 270.869 239.309 270.476 238.888 C 269.961 238.336,269.247 237.830,268.878 237.756 C 268.716 237.723,268.372 237.615,268.114 237.515 C 267.654 237.337,265.241 237.294,264.583 237.452 M276.085 237.621 C 273.899 238.373,272.349 240.975,272.545 243.563 C 273.046 250.190,282.315 250.975,283.833 244.518 C 284.924 239.880,280.631 236.058,276.085 237.621 M126.667 243.174 L 126.667 248.847 127.958 248.799 L 129.250 248.750 129.298 247.226 L 129.345 245.702 131.214 245.642 C 134.345 245.542,135.538 244.518,135.636 241.846 C 135.711 239.803,135.208 238.818,133.694 238.042 L 132.638 237.500 129.652 237.500 L 126.667 237.500 126.667 243.174 M138.000 243.080 L 138.000 248.660 138.384 248.757 C 138.595 248.810,139.176 248.830,139.676 248.802 L 140.583 248.750 140.631 247.208 L 140.679 245.667 141.635 245.667 L 142.592 245.667 143.624 247.250 L 144.656 248.833 145.994 248.833 C 147.093 248.833,147.333 248.787,147.333 248.575 C 147.333 248.364,145.859 245.997,145.372 245.428 C 145.299 245.343,145.565 244.973,145.964 244.605 C 147.533 243.159,147.648 240.307,146.199 238.774 C 145.192 237.707,144.347 237.500,141.011 237.500 L 138.000 237.500 138.000 243.080 M162.667 243.174 L 162.667 248.847 163.958 248.799 L 165.250 248.750 165.297 246.792 L 165.344 244.833 167.672 244.833 L 170.000 244.833 170.000 243.667 L 170.000 242.500 167.667 242.500 L 165.333 242.500 165.333 241.171 L 165.333 239.842 167.958 239.796 L 170.583 239.750 170.633 238.625 L 170.682 237.500 166.674 237.500 L 162.667 237.500 162.667 243.174 M172.742 237.710 C 172.698 237.825,172.682 240.356,172.706 243.335 L 172.750 248.750 176.875 248.795 L 181.000 248.839 181.000 247.670 L 181.000 246.500 178.167 246.500 L 175.333 246.500 175.333 245.333 L 175.333 244.167 177.750 244.167 L 180.167 244.167 180.167 243.000 L 180.167 241.833 177.750 241.833 L 175.333 241.833 175.333 240.833 L 175.333 239.833 178.083 239.833 L 180.833 239.833 180.833 238.667 L 180.833 237.500 176.828 237.500 C 173.764 237.500,172.804 237.549,172.742 237.710 M203.500 243.143 L 203.500 248.786 204.833 248.819 L 206.167 248.851 206.167 243.175 L 206.167 237.500 204.833 237.500 L 203.500 237.500 203.500 243.143 M222.167 243.167 L 222.167 248.833 223.496 248.833 L 224.826 248.833 224.871 245.715 L 224.917 242.597 226.491 244.674 C 227.357 245.816,228.111 246.787,228.166 246.833 C 228.221 246.879,228.449 247.179,228.672 247.500 C 229.569 248.787,229.642 248.833,230.780 248.833 L 231.833 248.833 231.833 243.167 L 231.833 237.500 230.500 237.500 L 229.167 237.500 229.164 240.625 L 229.161 243.750 228.756 243.250 C 228.533 242.975,227.932 242.188,227.420 241.500 C 226.908 240.813,226.027 239.631,225.463 238.875 L 224.438 237.500 223.302 237.500 L 222.167 237.500 222.167 243.167 M237.680 238.375 C 237.470 238.856,237.078 239.813,236.809 240.500 C 236.541 241.188,236.218 241.975,236.091 242.250 C 235.457 243.625,233.500 248.481,233.500 248.680 C 233.500 248.764,234.086 248.833,234.801 248.833 L 236.103 248.833 236.381 248.203 C 236.533 247.857,236.743 247.332,236.846 247.037 L 237.033 246.500 239.338 246.500 C 241.585 246.500,241.647 246.510,241.758 246.875 C 241.820 247.081,242.022 247.606,242.206 248.042 L 242.541 248.833 243.875 248.833 L 245.208 248.833 245.108 248.331 C 245.053 248.054,244.824 247.436,244.601 246.956 C 244.378 246.476,243.705 244.883,243.107 243.417 C 242.509 241.950,241.865 240.435,241.676 240.050 C 241.488 239.665,241.333 239.280,241.333 239.196 C 241.333 239.111,241.180 238.695,240.992 238.271 L 240.651 237.500 239.357 237.500 L 238.062 237.500 237.680 238.375 M246.667 243.170 L 246.667 248.839 250.542 248.795 L 254.417 248.750 254.417 247.583 L 254.417 246.417 251.875 246.371 L 249.333 246.325 249.333 241.912 L 249.333 237.500 248.000 237.500 L 246.667 237.500 246.667 243.170 M286.206 243.125 L 286.250 248.750 290.125 248.795 L 294.000 248.839 294.000 247.586 L 294.000 246.333 291.417 246.333 L 288.833 246.333 288.833 241.917 L 288.833 237.500 287.498 237.500 L 286.162 237.500 286.206 243.125 M295.873 243.125 L 295.917 248.750 297.208 248.799 L 298.500 248.847 298.500 246.845 L 298.500 244.842 300.875 244.796 L 303.250 244.750 303.299 243.625 L 303.349 242.500 300.924 242.500 L 298.500 242.500 298.500 241.171 L 298.500 239.842 301.125 239.796 L 303.750 239.750 303.799 238.625 L 303.849 237.500 299.839 237.500 L 295.829 237.500 295.873 243.125 M215.607 240.131 C 217.936 241.403,217.503 245.659,214.976 246.340 C 212.162 247.097,210.046 243.827,211.656 241.210 C 212.485 239.862,214.238 239.383,215.607 240.131 M132.072 239.996 C 132.682 240.228,133.171 241.098,133.050 241.736 C 132.819 242.962,132.227 243.333,130.508 243.333 L 129.333 243.333 129.333 241.583 L 129.333 239.833 130.489 239.833 C 131.125 239.833,131.837 239.906,132.072 239.996 M143.590 240.075 C 144.219 240.338,144.500 240.851,144.500 241.738 C 144.500 242.874,143.438 243.500,141.510 243.500 L 140.667 243.500 140.667 241.667 L 140.667 239.833 141.839 239.833 C 142.486 239.833,143.270 239.942,143.590 240.075 M155.880 240.063 C 157.926 240.938,158.315 244.052,156.580 245.652 C 153.952 248.074,150.432 244.777,152.070 241.429 C 152.766 240.006,154.389 239.425,155.880 240.063 M279.969 240.311 C 282.006 241.761,281.508 245.612,279.195 246.305 C 276.452 247.127,274.275 244.149,275.645 241.448 C 276.451 239.859,278.557 239.305,279.969 240.311 M239.948 242.209 C 240.241 242.965,240.530 243.715,240.591 243.875 C 240.691 244.138,240.570 244.167,239.361 244.167 L 238.020 244.167 238.414 243.042 C 239.344 240.387,239.260 240.432,239.948 242.209 M174.786 251.506 C 169.534 252.823,169.236 261.141,174.385 262.705 C 178.481 263.948,181.916 261.422,181.916 257.167 C 181.917 253.042,178.735 250.515,174.786 251.506 M282.946 251.574 C 278.418 252.874,277.613 259.063,281.572 262.148 C 284.592 264.502,289.701 262.229,290.386 258.226 C 290.768 256.000,289.335 252.333,288.083 252.333 C 287.961 252.333,287.835 252.256,287.804 252.161 C 287.602 251.556,284.371 251.165,282.946 251.574 M116.167 257.167 L 116.167 262.864 119.375 262.807 C 124.480 262.716,126.590 261.077,126.637 257.167 C 126.683 253.339,124.480 251.629,119.375 251.531 L 116.167 251.469 116.167 257.167 M128.833 257.167 L 128.833 262.833 132.917 262.833 L 137.000 262.833 137.000 261.667 L 137.000 260.500 134.250 260.500 L 131.500 260.500 131.500 259.421 L 131.500 258.342 133.875 258.296 L 136.250 258.250 136.299 257.125 L 136.349 256.000 133.924 256.000 L 131.500 256.000 131.500 254.917 L 131.500 253.833 134.167 253.833 L 136.833 253.833 136.833 252.667 L 136.833 251.500 132.833 251.500 L 128.833 251.500 128.833 257.167 M138.000 251.579 C 138.000 251.630,138.073 251.801,138.163 251.961 C 138.252 252.120,139.188 254.436,140.242 257.109 C 141.296 259.781,142.249 262.165,142.359 262.407 C 142.655 263.057,144.949 262.999,145.277 262.333 C 145.491 261.898,146.656 259.039,146.736 258.750 C 146.762 258.658,146.845 258.433,146.920 258.250 C 147.821 256.066,148.088 255.399,148.505 254.291 C 148.773 253.580,149.106 252.778,149.246 252.508 C 149.724 251.584,149.637 251.500,148.200 251.500 L 146.900 251.500 146.680 252.125 C 146.559 252.469,146.295 253.125,146.093 253.583 C 145.891 254.042,145.319 255.443,144.822 256.697 C 144.145 258.403,143.880 258.911,143.768 258.711 C 143.605 258.420,142.595 255.859,141.820 253.773 C 140.947 251.422,141.125 251.590,139.457 251.535 C 138.655 251.509,138.000 251.528,138.000 251.579 M151.000 257.167 L 151.000 262.833 155.167 262.833 L 159.333 262.833 159.333 261.667 L 159.333 260.500 156.500 260.500 L 153.667 260.500 153.667 259.417 L 153.667 258.333 155.982 258.333 C 158.610 258.333,158.500 258.396,158.500 256.903 L 158.500 256.000 156.083 256.000 L 153.667 256.000 153.667 254.917 L 153.667 253.833 156.417 253.833 L 159.167 253.833 159.167 252.667 L 159.167 251.500 155.083 251.500 L 151.000 251.500 151.000 257.167 M161.667 257.167 L 161.667 262.833 165.591 262.833 L 169.515 262.833 169.466 261.625 L 169.417 260.417 166.875 260.371 L 164.333 260.325 164.333 255.912 L 164.333 251.500 163.000 251.500 L 161.667 251.500 161.667 257.167 M184.333 257.160 L 184.333 262.847 185.625 262.799 L 186.917 262.750 186.965 261.310 L 187.012 259.871 188.715 259.800 C 190.672 259.720,191.596 259.385,192.448 258.449 C 193.706 257.067,193.853 254.517,192.749 253.233 C 192.521 252.967,192.334 252.699,192.334 252.637 C 192.332 252.022,190.365 251.582,187.375 251.528 L 184.333 251.474 184.333 257.160 M195.944 251.611 C 195.883 251.672,195.833 254.222,195.833 257.278 L 195.833 262.833 197.083 262.833 L 198.333 262.833 198.333 259.883 C 198.333 258.184,198.395 257.000,198.479 257.092 C 198.560 257.179,198.830 257.625,199.079 258.083 C 201.031 261.669,201.028 261.664,201.750 261.664 L 202.417 261.664 203.250 260.062 C 203.708 259.180,204.325 258.037,204.620 257.521 L 205.157 256.583 205.162 259.708 L 205.167 262.833 206.417 262.833 L 207.667 262.833 207.667 257.159 L 207.667 251.485 206.489 251.534 L 205.312 251.583 203.544 254.867 L 201.776 258.152 200.962 256.701 C 200.514 255.903,199.690 254.406,199.131 253.375 L 198.114 251.500 197.085 251.500 C 196.519 251.500,196.006 251.550,195.944 251.611 M210.500 257.167 L 210.500 262.833 214.583 262.833 L 218.667 262.833 218.667 261.667 L 218.667 260.500 215.917 260.500 L 213.167 260.500 213.167 259.417 L 213.167 258.333 215.500 258.333 L 217.833 258.333 217.833 257.167 L 217.833 256.000 215.500 256.000 L 213.167 256.000 213.167 254.917 L 213.167 253.833 215.833 253.833 L 218.500 253.833 218.500 252.667 L 218.500 251.500 214.500 251.500 L 210.500 251.500 210.500 257.167 M221.076 251.710 C 221.031 251.825,221.015 254.356,221.039 257.335 L 221.083 262.750 222.371 262.799 L 223.659 262.847 223.705 259.657 L 223.750 256.468 224.908 258.026 C 225.545 258.882,226.128 259.658,226.203 259.750 C 226.278 259.842,226.836 260.573,227.443 261.375 L 228.548 262.833 229.607 262.833 L 230.667 262.833 230.667 257.160 L 230.667 251.486 229.375 251.535 L 228.083 251.583 228.000 254.571 L 227.917 257.559 227.458 256.988 C 226.996 256.411,225.864 254.930,225.250 254.097 C 225.067 253.848,224.556 253.162,224.116 252.572 L 223.314 251.500 222.235 251.500 C 221.522 251.500,221.129 251.571,221.076 251.710 M232.614 251.608 C 232.551 251.671,232.500 252.197,232.500 252.778 L 232.500 253.833 234.167 253.833 L 235.833 253.833 235.833 258.333 L 235.833 262.833 237.167 262.833 L 238.500 262.833 238.500 258.333 L 238.500 253.833 240.174 253.833 L 241.849 253.833 241.799 252.708 L 241.750 251.583 237.239 251.539 C 234.758 251.515,232.676 251.546,232.614 251.608 M246.287 252.625 C 245.819 253.855,244.318 257.499,243.816 258.623 C 243.642 259.012,243.500 259.377,243.500 259.436 C 243.500 259.494,243.245 260.113,242.934 260.812 C 241.966 262.987,241.920 262.833,243.542 262.833 L 244.939 262.833 245.238 261.875 C 245.682 260.455,245.588 260.500,248.072 260.500 L 250.269 260.500 250.529 261.125 C 250.672 261.469,250.883 261.994,250.998 262.292 L 251.207 262.833 252.604 262.833 C 253.372 262.833,254.000 262.792,254.000 262.742 C 254.000 262.691,253.695 261.922,253.321 261.033 C 252.948 260.144,252.376 258.779,252.051 258.000 C 251.726 257.221,251.360 256.358,251.238 256.083 C 251.116 255.808,250.794 255.021,250.522 254.333 C 250.250 253.646,249.868 252.727,249.673 252.292 L 249.318 251.500 248.016 251.500 L 246.715 251.500 246.287 252.625 M255.333 257.167 L 255.333 262.833 259.257 262.833 L 263.181 262.833 263.132 261.625 L 263.083 260.417 260.542 260.371 L 258.000 260.325 258.000 255.912 L 258.000 251.500 256.667 251.500 L 255.333 251.500 255.333 257.167 M268.778 251.611 C 268.717 251.672,268.667 252.197,268.667 252.778 L 268.667 253.833 270.333 253.833 L 272.000 253.833 272.000 258.333 L 272.000 262.833 273.333 262.833 L 274.667 262.833 274.667 258.333 L 274.667 253.833 276.333 253.833 L 278.000 253.833 278.000 252.667 L 278.000 251.500 273.444 251.500 C 270.939 251.500,268.839 251.550,268.778 251.611 M292.667 255.303 C 292.667 259.868,292.784 260.442,293.968 261.657 C 295.825 263.565,299.596 263.430,301.145 261.401 C 302.093 260.159,302.151 259.817,302.159 255.451 L 302.167 251.486 300.875 251.535 L 299.583 251.583 299.500 255.417 C 299.399 260.077,299.214 260.500,297.278 260.500 C 295.678 260.500,295.363 259.660,295.340 255.340 C 295.318 251.146,295.450 251.500,293.907 251.500 L 292.667 251.500 292.667 255.303 M305.000 257.167 L 305.000 262.833 306.333 262.833 L 307.667 262.833 307.667 261.333 L 307.667 259.833 308.647 259.833 L 309.628 259.833 310.583 261.333 L 311.539 262.833 312.936 262.833 C 314.615 262.833,314.603 262.906,313.254 260.917 L 312.176 259.326 312.989 258.538 C 315.170 256.425,314.257 252.584,311.382 251.777 C 310.647 251.571,309.705 251.500,307.697 251.500 L 305.000 251.500 305.000 257.167 M122.037 254.226 C 123.430 254.847,124.166 256.276,123.839 257.724 C 123.766 258.050,123.728 258.339,123.756 258.367 C 123.783 258.394,123.602 258.717,123.354 259.083 C 122.716 260.025,122.187 260.236,120.292 260.305 L 118.667 260.365 118.667 257.099 L 118.667 253.833 119.912 253.833 C 120.860 253.833,121.367 253.927,122.037 254.226 M177.917 254.300 C 181.091 256.467,178.512 261.826,175.091 260.171 C 172.130 258.737,173.090 253.844,176.333 253.844 C 177.058 253.844,177.390 253.940,177.917 254.300 M189.833 254.125 C 190.602 254.509,190.919 255.379,190.621 256.287 C 190.351 257.108,189.861 257.328,188.292 257.331 L 187.000 257.333 187.000 255.583 L 187.000 253.833 188.125 253.834 C 188.862 253.834,189.451 253.934,189.833 254.125 M286.261 254.248 C 287.674 255.076,288.163 257.290,287.302 258.963 C 286.218 261.070,283.142 260.964,282.106 258.784 C 280.681 255.786,283.547 252.657,286.261 254.248 M310.777 254.266 C 311.323 254.674,311.531 255.458,311.307 256.267 C 311.083 257.079,310.560 257.349,309.006 257.456 L 307.667 257.548 307.667 255.673 L 307.667 253.798 308.989 253.858 C 310.005 253.904,310.419 253.999,310.777 254.266 M248.823 256.665 C 249.104 257.434,249.333 258.124,249.333 258.199 C 249.333 258.273,248.725 258.333,247.981 258.333 C 246.442 258.333,246.510 258.487,247.246 256.667 C 248.162 254.398,247.996 254.398,248.823 256.665 " stroke="none" fill="#84640c" fill-rule="evenodd"></path><path id="path1" d="M239.149 103.883 C 237.085 104.752,235.271 106.750,234.643 108.847 L 234.434 109.543 232.987 109.434 C 223.782 108.739,210.410 108.948,202.833 109.906 C 202.604 109.935,201.404 110.083,200.167 110.235 C 197.535 110.559,193.598 111.116,193.000 111.250 C 192.771 111.302,191.496 111.534,190.168 111.766 C 187.450 112.241,186.755 112.387,182.750 113.322 C 178.330 114.355,173.600 115.682,169.667 116.993 C 166.839 117.936,163.559 119.102,163.083 119.334 C 162.900 119.424,162.225 119.691,161.583 119.929 C 160.942 120.167,160.021 120.543,159.537 120.764 C 159.053 120.986,158.619 121.167,158.574 121.167 C 158.497 121.167,157.063 121.812,153.167 123.602 C 152.296 124.002,151.358 124.451,151.083 124.600 C 150.808 124.749,149.496 125.426,148.167 126.104 C 146.837 126.782,145.375 127.548,144.917 127.806 C 144.458 128.064,143.379 128.670,142.517 129.151 C 141.656 129.633,140.663 130.208,140.312 130.430 C 139.961 130.652,139.645 130.833,139.611 130.833 C 139.577 130.833,138.882 131.245,138.066 131.748 C 137.251 132.252,136.358 132.788,136.083 132.940 C 135.808 133.092,134.046 134.234,132.167 135.479 C 129.190 137.450,128.098 138.205,126.993 139.053 C 126.851 139.161,126.363 139.509,125.909 139.825 C 125.455 140.141,125.046 140.447,125.000 140.506 C 124.954 140.565,124.570 140.868,124.147 141.181 C 112.336 149.908,108.077 158.269,113.582 161.923 C 120.622 166.596,134.196 154.435,128.116 148.903 C 124.635 145.735,118.649 148.124,114.756 154.236 C 114.177 155.143,114.228 154.141,114.812 153.124 C 117.094 149.151,121.527 146.284,125.428 146.260 L 127.105 146.250 127.286 145.105 C 127.831 141.652,129.373 140.113,137.033 135.381 C 140.754 133.082,145.717 130.375,149.250 128.716 C 152.955 126.977,154.003 126.500,154.118 126.500 C 154.178 126.500,154.533 126.354,154.906 126.175 C 155.894 125.701,159.933 124.095,161.000 123.751 C 161.504 123.589,161.992 123.401,162.083 123.333 C 162.175 123.266,163.000 122.974,163.917 122.686 C 164.833 122.397,165.733 122.091,165.917 122.006 C 167.620 121.210,178.121 118.444,183.333 117.420 C 184.938 117.104,186.569 116.768,186.958 116.674 C 187.348 116.579,189.260 116.279,191.208 116.006 C 193.156 115.734,195.200 115.435,195.750 115.341 C 196.855 115.153,200.606 114.793,204.833 114.468 C 208.541 114.183,222.526 114.183,226.167 114.468 C 233.714 115.059,234.589 115.228,235.167 116.209 C 236.144 117.868,237.370 118.711,240.287 119.726 C 244.751 121.280,246.242 123.309,246.899 128.722 C 247.144 130.746,247.171 130.689,247.848 126.740 C 248.886 120.686,248.891 120.641,248.904 116.000 C 248.917 111.320,248.849 110.702,248.056 108.333 C 247.294 106.056,246.286 104.769,244.678 104.023 C 243.303 103.385,240.500 103.314,239.149 103.883 M249.339 110.086 C 249.341 110.268,249.452 111.317,249.585 112.417 C 250.695 121.620,248.021 134.170,242.731 144.578 C 241.140 147.708,238.270 152.368,236.259 155.086 C 235.989 155.451,235.351 156.313,234.842 157.000 C 234.333 157.688,233.838 158.325,233.741 158.417 C 233.645 158.508,233.295 158.921,232.965 159.333 C 230.277 162.683,224.777 167.214,220.741 169.405 C 218.725 170.498,216.101 171.799,215.160 172.169 C 214.660 172.366,214.176 172.585,214.084 172.656 C 213.992 172.726,213.317 172.994,212.583 173.250 C 211.850 173.507,211.025 173.813,210.750 173.931 C 209.841 174.319,206.765 175.293,204.742 175.834 C 203.646 176.127,202.412 176.470,202.000 176.596 C 201.588 176.722,200.200 177.056,198.917 177.339 C 197.633 177.622,196.433 177.891,196.250 177.938 C 195.637 178.095,188.444 179.336,186.167 179.678 C 183.868 180.024,182.178 180.389,181.583 180.668 C 181.400 180.754,180.820 180.982,180.295 181.173 C 174.688 183.218,173.150 189.540,176.872 195.240 C 176.988 195.418,177.325 195.943,177.620 196.407 C 178.562 197.885,179.181 198.713,180.494 200.250 C 182.364 202.439,184.088 204.606,185.752 206.859 C 186.340 207.656,189.071 211.764,189.858 213.036 C 191.954 216.424,194.182 221.555,195.032 224.954 C 195.325 226.125,195.586 227.113,195.612 227.149 C 195.665 227.223,198.656 226.187,198.917 226.004 C 199.008 225.940,199.571 225.712,200.167 225.498 C 200.762 225.284,201.625 224.942,202.083 224.738 C 202.542 224.534,203.196 224.252,203.537 224.111 C 208.124 222.214,218.378 216.788,223.750 213.415 C 224.392 213.012,225.139 212.556,225.410 212.402 C 226.337 211.876,230.889 208.817,232.781 207.449 C 233.820 206.698,234.886 205.928,235.150 205.737 C 235.414 205.547,236.144 204.989,236.773 204.497 C 237.402 204.005,237.945 203.582,237.979 203.558 C 238.014 203.534,238.217 202.629,238.432 201.549 C 238.646 200.468,238.940 199.058,239.084 198.417 C 239.536 196.406,241.548 184.658,241.456 184.568 C 241.434 184.547,240.029 185.891,238.333 187.556 C 234.589 191.233,231.323 194.133,228.167 196.586 C 227.387 197.192,226.619 197.795,226.458 197.925 C 225.810 198.454,226.225 197.858,227.079 197.034 C 228.218 195.934,230.193 193.722,232.168 191.333 C 232.997 190.331,233.049 190.264,234.750 187.986 C 241.004 179.612,246.208 170.501,249.779 161.672 C 251.333 157.831,252.856 153.100,253.938 148.750 C 254.266 147.432,254.952 143.566,255.283 141.167 C 255.805 137.389,255.630 127.785,254.995 125.333 C 254.912 125.013,254.725 124.112,254.581 123.333 C 254.436 122.554,254.275 121.775,254.224 121.602 C 253.705 119.865,261.090 124.733,263.833 127.937 C 268.323 133.180,270.261 144.248,268.347 153.708 C 267.710 156.855,267.108 159.474,266.749 160.667 C 266.060 162.953,264.327 168.226,264.166 168.526 C 264.084 168.677,263.760 169.465,263.446 170.276 C 261.931 174.190,257.889 182.562,256.258 185.167 C 253.757 189.160,253.630 189.995,255.994 186.897 C 256.227 186.593,257.090 185.464,257.913 184.389 C 259.575 182.219,259.648 182.115,261.641 179.167 C 273.360 161.831,277.493 144.438,273.127 130.833 C 271.488 125.723,268.704 121.928,264.073 118.489 C 260.910 116.139,257.317 114.337,252.769 112.817 C 250.725 112.134,250.610 112.072,250.379 111.518 C 249.994 110.596,249.332 109.686,249.339 110.086 M131.412 134.732 C 128.311 136.412,126.271 137.570,125.224 138.244 C 124.934 138.431,124.266 138.846,123.738 139.167 C 122.052 140.192,119.753 141.713,119.648 141.873 C 119.592 141.959,119.517 142.006,119.481 141.978 C 119.414 141.925,114.210 145.500,113.615 146.008 C 113.506 146.101,112.704 146.710,111.833 147.361 C 110.962 148.013,110.019 148.741,109.737 148.981 C 109.455 149.221,108.934 149.642,108.578 149.917 C 108.223 150.192,107.591 150.708,107.175 151.065 C 105.914 152.142,104.462 153.402,104.174 153.667 C 104.025 153.804,103.268 154.478,102.493 155.164 C 101.718 155.850,99.846 157.651,98.333 159.165 C 94.973 162.530,92.408 165.386,89.382 169.132 C 88.784 169.873,86.093 173.486,85.581 174.235 C 83.517 177.259,82.314 179.169,80.536 182.250 C 79.956 183.255,76.892 189.523,76.747 190.000 C 76.678 190.229,76.418 190.867,76.170 191.417 C 72.075 200.500,70.597 213.269,72.516 222.979 C 72.962 225.231,74.473 230.425,74.826 230.917 C 74.892 231.008,75.121 231.533,75.335 232.083 C 77.581 237.847,83.279 245.244,88.917 249.714 C 89.925 250.513,90.832 251.234,90.932 251.316 C 93.336 253.275,100.398 257.215,104.117 258.673 C 104.832 258.953,105.642 259.284,105.917 259.408 C 106.192 259.533,107.017 259.838,107.750 260.086 C 108.483 260.335,109.320 260.642,109.609 260.769 C 110.793 261.290,110.833 261.233,110.833 259.018 C 110.833 252.375,113.191 243.578,116.076 239.459 C 116.461 238.910,116.430 238.882,115.125 238.591 C 112.672 238.046,107.379 236.294,105.204 235.308 C 104.629 235.047,104.117 234.833,104.066 234.833 C 103.406 234.833,97.281 231.261,94.982 229.535 C 92.242 227.478,88.511 223.763,87.178 221.765 C 87.034 221.550,86.621 220.933,86.259 220.395 C 81.182 212.843,79.653 203.243,81.902 193.027 C 82.323 191.116,83.630 186.808,84.160 185.583 C 84.319 185.217,84.665 184.392,84.929 183.750 C 85.534 182.281,87.801 177.667,88.081 177.333 C 88.197 177.196,88.509 176.671,88.775 176.167 C 89.321 175.130,89.638 174.627,91.652 171.597 C 96.644 164.088,105.235 154.709,112.577 148.750 C 113.029 148.383,113.665 147.855,113.991 147.575 C 115.119 146.607,117.760 144.554,120.000 142.904 C 122.311 141.201,122.493 141.070,123.917 140.095 C 124.375 139.781,125.409 139.069,126.215 138.513 C 127.021 137.957,127.895 137.390,128.158 137.255 C 128.420 137.119,128.736 136.909,128.859 136.787 C 128.982 136.666,129.496 136.325,130.000 136.028 C 130.504 135.732,131.704 135.006,132.667 134.414 C 133.629 133.823,134.492 133.311,134.583 133.276 C 134.675 133.241,134.711 133.169,134.662 133.116 C 134.614 133.063,133.152 133.790,131.412 134.732 M198.667 136.270 C 191.578 137.587,185.931 143.115,185.366 149.289 L 185.250 150.561 183.417 151.628 C 182.408 152.216,181.246 152.883,180.833 153.111 C 174.183 156.788,173.198 158.131,176.063 159.615 C 178.473 160.864,186.127 161.410,190.083 160.615 C 193.392 159.950,194.147 159.762,195.667 159.225 C 196.652 158.876,197.124 158.766,196.917 158.934 C 196.443 159.318,193.121 160.893,191.833 161.345 C 191.237 161.554,190.727 161.741,190.698 161.761 C 190.503 161.900,193.501 168.422,194.520 170.073 C 198.670 176.804,205.782 176.768,210.777 169.991 C 211.677 168.770,212.897 166.623,213.329 165.500 C 213.523 164.996,213.787 164.356,213.915 164.078 C 214.908 161.923,215.395 158.633,215.405 154.000 C 215.432 142.266,210.901 136.409,201.667 136.240 C 200.246 136.214,198.896 136.228,198.667 136.270 M272.658 161.458 C 272.413 162.346,271.290 165.396,270.833 166.417 C 270.669 166.783,270.341 167.533,270.104 168.083 C 269.445 169.616,267.949 172.469,266.577 174.808 C 265.432 176.762,262.372 181.281,260.955 183.112 C 259.742 184.679,259.382 185.132,258.523 186.167 C 254.050 191.553,248.176 197.420,242.672 202.000 C 242.176 202.412,241.456 203.012,241.073 203.333 C 240.020 204.213,237.747 205.979,236.250 207.079 C 232.400 209.908,231.992 210.195,229.167 212.066 C 227.838 212.946,226.637 213.743,226.500 213.837 C 226.362 213.930,225.463 214.491,224.500 215.083 C 223.537 215.675,222.525 216.301,222.250 216.475 C 219.058 218.491,208.473 224.030,205.156 225.419 C 204.566 225.666,204.008 225.928,203.917 226.002 C 203.825 226.076,203.225 226.342,202.583 226.594 C 201.942 226.846,201.342 227.109,201.250 227.178 C 201.158 227.248,200.483 227.542,199.750 227.832 C 199.017 228.123,198.192 228.466,197.917 228.596 C 197.642 228.725,196.854 229.053,196.167 229.323 L 194.917 229.814 216.333 229.822 L 237.750 229.830 238.750 228.978 C 241.729 226.439,243.864 224.465,246.747 221.579 C 250.507 217.818,252.675 215.409,255.561 211.788 C 257.682 209.126,258.413 208.126,260.582 204.917 C 262.008 202.807,264.000 199.587,264.000 199.392 C 264.000 199.328,264.105 199.158,264.233 199.013 C 264.556 198.649,266.951 193.926,267.882 191.818 C 272.288 181.838,274.106 171.887,273.276 162.292 C 273.119 160.479,272.980 160.292,272.658 161.458 M147.923 266.571 C 146.151 267.061,145.240 269.013,145.908 270.886 C 146.479 272.486,148.375 273.234,150.356 272.640 L 151.000 272.447 151.000 270.890 L 151.000 269.333 149.833 269.333 C 148.700 269.333,148.667 269.345,148.667 269.750 C 148.667 270.115,148.739 270.167,149.250 270.167 L 149.833 270.167 149.833 271.000 L 149.833 271.833 149.064 271.833 C 148.388 271.833,148.213 271.752,147.627 271.166 C 145.943 269.483,147.662 266.764,149.963 267.471 C 150.668 267.687,150.833 267.613,150.833 267.083 C 150.833 266.432,149.361 266.172,147.923 266.571 M166.426 266.548 C 164.460 267.169,163.892 270.681,165.531 272.086 C 167.747 273.987,170.734 272.227,170.457 269.184 C 170.259 267.007,168.537 265.881,166.426 266.548 M196.986 266.493 C 194.594 267.217,194.216 271.204,196.420 272.452 C 198.553 273.660,200.789 272.220,200.820 269.618 C 200.849 267.178,199.189 265.825,196.986 266.493 M211.247 266.488 C 209.532 266.899,208.601 269.273,209.403 271.191 C 210.269 273.264,213.595 273.408,214.578 271.415 C 215.963 268.608,214.071 265.811,211.247 266.488 M140.871 269.625 L 140.917 272.750 141.458 272.802 L 142.000 272.854 142.000 271.594 L 142.000 270.333 142.739 270.333 C 144.306 270.333,145.074 269.554,144.947 268.093 C 144.834 266.782,144.384 266.500,142.404 266.500 L 140.826 266.500 140.871 269.625 M152.205 269.607 L 152.250 272.750 153.391 272.800 C 155.396 272.887,156.900 272.146,157.324 270.862 C 157.662 269.836,157.496 268.169,156.994 267.548 C 156.297 266.687,156.042 266.599,154.038 266.529 L 152.159 266.464 152.205 269.607 M159.833 267.000 C 159.833 267.489,159.852 267.500,160.667 267.500 L 161.500 267.500 161.500 270.167 L 161.500 272.833 162.083 272.833 L 162.667 272.833 162.667 270.167 L 162.667 267.500 163.583 267.500 C 164.491 267.500,164.500 267.495,164.500 267.000 L 164.500 266.500 162.167 266.500 L 159.833 266.500 159.833 267.000 M171.529 268.958 C 171.615 272.166,172.019 272.831,173.878 272.833 C 175.820 272.834,176.331 271.958,176.332 268.625 L 176.333 266.500 175.766 266.500 L 175.199 266.500 175.141 268.816 C 175.075 271.456,174.919 271.833,173.888 271.833 C 172.916 271.833,172.668 271.181,172.667 268.625 L 172.667 266.500 172.065 266.500 L 171.464 266.500 171.529 268.958 M177.667 269.651 L 177.667 272.833 178.250 272.833 L 178.833 272.833 178.833 271.500 C 178.833 269.638,179.910 269.547,180.338 271.372 C 180.645 272.681,180.760 272.833,181.442 272.833 C 181.983 272.833,182.028 272.798,181.926 272.458 C 181.864 272.252,181.719 271.708,181.603 271.250 C 181.488 270.792,181.312 270.266,181.212 270.082 C 181.069 269.817,181.098 269.666,181.349 269.355 C 181.782 268.821,181.781 267.512,181.348 266.977 C 181.059 266.619,180.879 266.578,179.348 266.526 L 177.667 266.469 177.667 269.651 M185.000 269.667 L 185.000 272.833 185.583 272.833 L 186.167 272.833 186.167 271.583 L 186.167 270.333 186.792 270.321 C 188.331 270.289,189.167 269.590,189.167 268.333 C 189.167 266.994,188.429 266.500,186.433 266.500 L 185.000 266.500 185.000 269.667 M190.167 269.667 L 190.167 272.833 190.750 272.833 L 191.333 272.833 191.333 271.500 C 191.333 269.469,192.588 269.652,193.040 271.750 C 193.254 272.740,193.262 272.751,193.878 272.802 C 194.280 272.835,194.500 272.783,194.500 272.653 C 194.500 272.351,193.857 270.286,193.675 270.003 C 193.560 269.825,193.618 269.645,193.883 269.364 C 194.457 268.752,194.404 267.437,193.782 266.902 C 193.359 266.538,193.164 266.500,191.741 266.500 L 190.167 266.500 190.167 269.667 M202.094 268.125 C 202.026 269.019,201.936 270.275,201.894 270.917 C 201.851 271.558,201.802 272.233,201.783 272.417 C 201.757 272.677,201.864 272.761,202.269 272.801 C 202.890 272.861,203.000 272.526,203.000 270.572 C 203.000 268.807,203.249 268.905,203.862 270.910 C 204.400 272.666,204.400 272.667,204.937 272.667 C 205.412 272.667,205.497 272.594,205.668 272.042 C 205.775 271.698,205.961 271.192,206.082 270.917 C 206.203 270.642,206.397 270.095,206.512 269.702 C 206.812 268.686,206.994 269.121,206.997 270.861 C 207.001 272.695,207.056 272.833,207.786 272.833 C 208.306 272.833,208.360 272.793,208.280 272.458 C 208.231 272.252,208.138 270.827,208.073 269.292 L 207.955 266.500 207.248 266.500 C 206.603 266.500,206.523 266.548,206.337 267.042 C 206.225 267.340,206.065 267.733,205.982 267.917 C 205.899 268.100,205.653 268.775,205.434 269.417 C 205.128 270.316,205.011 270.507,204.923 270.250 C 204.860 270.067,204.751 269.804,204.681 269.667 C 204.611 269.529,204.345 268.760,204.090 267.958 L 203.627 266.500 202.922 266.500 L 202.216 266.500 202.094 268.125 M215.167 267.000 C 215.167 267.495,215.176 267.500,216.083 267.500 L 217.000 267.500 217.000 270.167 L 217.000 272.833 217.583 272.833 L 218.167 272.833 218.167 270.167 L 218.167 267.500 219.083 267.500 C 219.991 267.500,220.000 267.495,220.000 267.000 L 220.000 266.500 217.583 266.500 L 215.167 266.500 215.167 267.000 M220.667 269.667 L 220.667 272.833 222.583 272.833 L 224.500 272.833 224.500 272.333 L 224.500 271.833 223.167 271.833 L 221.833 271.833 221.833 270.833 L 221.833 269.833 223.000 269.833 C 224.133 269.833,224.167 269.821,224.167 269.417 C 224.167 269.012,224.133 269.000,223.000 269.000 L 221.833 269.000 221.833 268.167 L 221.833 267.333 223.083 267.333 C 224.306 267.333,224.333 267.324,224.333 266.917 L 224.333 266.500 222.500 266.500 L 220.667 266.500 220.667 269.667 M225.371 269.625 L 225.417 272.750 226.558 272.800 C 229.401 272.923,230.801 271.667,230.640 269.136 C 230.511 267.112,229.669 266.500,227.013 266.500 L 225.326 266.500 225.371 269.625 M234.000 269.684 L 234.000 272.869 235.292 272.803 C 237.828 272.675,238.959 271.300,237.730 269.840 C 237.303 269.332,237.300 269.313,237.602 268.980 C 238.712 267.753,237.646 266.500,235.491 266.500 L 234.000 266.500 234.000 269.684 M238.500 266.679 C 238.500 266.778,238.912 267.604,239.417 268.515 C 240.313 270.134,240.333 270.200,240.333 271.502 L 240.333 272.833 240.917 272.833 L 241.500 272.833 241.500 271.497 C 241.500 270.358,241.562 270.062,241.917 269.500 C 242.146 269.137,242.333 268.797,242.333 268.745 C 242.333 268.693,242.596 268.240,242.917 267.739 C 243.647 266.596,243.644 266.500,242.875 266.501 C 242.273 266.502,242.227 266.545,241.611 267.675 L 240.973 268.847 240.363 267.674 C 239.772 266.536,239.733 266.500,239.126 266.500 C 238.782 266.500,238.500 266.581,238.500 266.679 M246.527 269.363 C 246.122 272.262,246.103 272.333,245.740 272.333 C 245.608 272.333,245.500 272.396,245.500 272.473 C 245.500 272.550,245.950 272.617,246.500 272.622 C 247.498 272.632,247.808 272.454,247.155 272.246 C 246.916 272.171,246.843 272.051,246.918 271.860 C 246.978 271.708,247.069 271.171,247.119 270.667 C 247.235 269.505,247.414 269.123,247.579 269.681 C 247.791 270.399,249.053 272.500,249.273 272.500 C 249.390 272.500,249.882 271.696,250.367 270.713 L 251.249 268.926 251.451 270.505 C 251.562 271.373,251.621 272.177,251.582 272.292 C 251.533 272.435,251.730 272.506,252.214 272.519 C 257.114 272.652,257.744 272.644,257.866 272.453 C 258.053 272.158,258.029 271.333,257.833 271.333 C 257.742 271.333,257.667 271.444,257.667 271.580 C 257.667 271.877,257.087 272.044,256.315 271.971 L 255.750 271.917 255.700 270.875 L 255.651 269.833 256.409 269.833 C 257.056 269.833,257.167 269.882,257.167 270.167 C 257.167 270.350,257.242 270.500,257.333 270.500 C 257.425 270.500,257.500 270.397,257.500 270.271 C 257.500 270.145,257.544 269.821,257.598 269.551 L 257.696 269.060 256.682 269.133 L 255.667 269.207 255.667 268.255 L 255.667 267.304 256.375 267.417 C 256.765 267.479,257.180 267.654,257.298 267.806 C 257.573 268.159,257.827 267.826,257.831 267.106 C 257.833 266.691,257.784 266.641,257.458 266.728 C 257.252 266.784,256.296 266.831,255.333 266.834 C 253.813 266.838,253.638 266.866,254.000 267.049 C 254.408 267.255,254.418 267.304,254.465 269.421 C 254.526 272.175,254.488 272.333,253.767 272.333 C 253.029 272.333,252.907 272.147,252.678 270.667 C 252.571 269.979,252.417 269.079,252.335 268.667 C 252.254 268.254,252.141 267.635,252.086 267.292 C 251.924 266.288,251.644 266.549,250.607 268.671 C 250.071 269.770,249.583 270.698,249.524 270.735 C 249.465 270.771,248.967 269.872,248.417 268.738 C 247.067 265.954,247.000 265.976,246.527 269.363 M268.463 266.923 C 267.038 267.708,267.479 269.364,269.372 270.348 C 270.126 270.739,270.349 271.356,269.911 271.840 C 269.352 272.457,268.047 272.112,267.886 271.305 C 267.749 270.621,267.500 270.905,267.500 271.744 C 267.500 272.757,268.598 273.154,269.880 272.603 C 271.748 271.801,271.616 269.892,269.627 268.949 C 268.822 268.566,268.515 267.944,268.915 267.502 C 269.384 266.984,270.123 267.062,270.466 267.666 C 270.861 268.359,271.028 268.290,270.968 267.458 L 270.917 266.750 269.917 266.711 C 269.274 266.686,268.754 266.762,268.463 266.923 M271.417 267.309 C 271.296 267.949,271.448 268.218,271.687 267.790 C 271.811 267.570,272.068 267.500,272.758 267.500 L 273.667 267.500 273.667 269.313 C 273.667 271.522,273.550 272.185,273.143 272.291 C 272.975 272.335,272.871 272.425,272.912 272.492 C 273.019 272.666,275.487 272.656,275.595 272.481 C 275.645 272.400,275.535 272.333,275.349 272.333 C 274.799 272.333,274.667 271.803,274.667 269.594 L 274.667 267.500 275.505 267.500 C 276.097 267.500,276.372 267.574,276.440 267.750 C 276.617 268.212,276.833 268.006,276.833 267.375 L 276.833 266.750 274.177 266.750 L 271.521 266.750 271.417 267.309 M278.917 266.825 C 277.817 266.876,277.104 266.954,277.333 267.000 L 277.750 267.083 277.796 269.639 C 277.840 272.086,277.828 272.199,277.504 272.284 C 276.753 272.480,277.265 272.588,279.117 272.623 C 281.216 272.663,281.326 272.622,281.331 271.792 C 281.334 271.256,281.079 271.179,280.949 271.676 C 280.872 271.973,280.750 272.012,280.055 271.968 L 279.250 271.917 279.200 270.875 L 279.151 269.833 279.909 269.833 C 280.556 269.833,280.667 269.882,280.667 270.167 C 280.667 270.350,280.742 270.500,280.833 270.500 C 280.925 270.500,281.000 270.181,281.000 269.792 L 281.000 269.083 280.084 269.140 L 279.167 269.198 279.167 268.251 L 279.167 267.304 279.875 267.422 C 280.265 267.487,280.648 267.652,280.728 267.790 C 280.848 267.998,280.896 268.002,281.017 267.812 C 281.195 267.531,281.214 266.654,281.042 266.700 C 280.973 266.719,280.017 266.775,278.917 266.825 M282.821 266.958 C 282.814 267.119,282.776 267.400,282.737 267.583 C 282.699 267.767,282.550 268.742,282.406 269.750 C 282.110 271.837,281.951 272.333,281.577 272.333 C 281.432 272.333,281.353 272.398,281.402 272.476 C 281.510 272.651,283.313 272.668,283.420 272.495 C 283.462 272.427,283.340 272.330,283.150 272.281 C 282.909 272.218,282.831 272.098,282.893 271.887 C 282.943 271.720,283.035 271.036,283.097 270.367 L 283.211 269.151 284.055 270.831 C 285.095 272.901,285.172 272.899,286.239 270.791 C 287.175 268.941,287.255 268.956,287.417 271.005 L 287.532 272.457 288.474 272.554 C 289.454 272.655,290.008 272.455,289.265 272.269 C 288.777 272.146,288.773 272.135,288.415 269.500 C 287.930 265.930,287.915 265.924,286.500 268.750 C 285.926 269.896,285.433 270.833,285.404 270.833 C 285.376 270.833,284.894 269.896,284.333 268.750 C 283.387 266.815,282.854 266.184,282.821 266.958 M258.708 267.050 L 259.167 267.231 259.167 269.460 C 259.167 271.703,259.035 272.333,258.568 272.333 C 258.428 272.333,258.352 272.396,258.400 272.473 C 258.500 272.635,261.000 272.681,261.000 272.520 C 261.000 272.461,260.831 272.338,260.625 272.248 C 260.316 272.112,260.241 271.930,260.200 271.208 C 260.129 269.986,260.692 269.953,261.555 271.128 C 262.623 272.584,262.608 272.577,264.932 272.604 C 266.747 272.625,267.700 272.456,266.625 272.303 C 266.108 272.230,265.942 267.410,266.444 267.043 C 266.682 266.868,266.509 266.835,265.407 266.844 C 264.444 266.852,264.186 266.896,264.458 267.005 C 264.824 267.152,264.833 267.219,264.833 269.651 C 264.833 272.863,264.638 273.011,262.939 271.087 L 261.989 270.012 262.495 269.314 C 263.729 267.610,262.968 266.824,260.111 266.851 C 258.589 266.866,258.334 266.902,258.708 267.050 M168.116 267.493 C 169.828 268.537,169.439 271.833,167.603 271.833 C 165.674 271.833,165.146 268.552,166.903 267.481 C 167.531 267.098,167.468 267.098,168.116 267.493 M180.385 267.856 C 180.780 268.481,180.073 269.333,179.159 269.333 C 178.766 269.333,178.657 267.425,179.042 267.286 C 179.333 267.181,180.189 267.544,180.385 267.856 M192.383 267.414 C 193.580 267.913,193.056 269.333,191.675 269.333 C 191.268 269.333,191.145 267.437,191.542 267.277 C 191.656 267.231,191.760 267.187,191.771 267.180 C 191.783 267.173,192.059 267.278,192.383 267.414 M198.819 267.792 C 200.270 269.095,199.680 271.833,197.949 271.833 C 196.003 271.833,195.581 268.592,197.384 267.493 C 198.069 267.075,198.008 267.063,198.819 267.792 M213.380 268.194 C 214.021 269.054,213.687 271.210,212.843 271.662 C 211.411 272.428,210.053 270.851,210.484 268.923 C 210.884 267.135,212.321 266.774,213.380 268.194 M236.089 267.408 C 237.119 267.838,236.662 269.000,235.463 269.000 C 234.761 269.000,234.762 267.376,235.464 267.180 C 235.490 267.173,235.771 267.275,236.089 267.408 M143.349 267.619 C 144.273 268.165,143.801 269.337,142.636 269.391 L 142.083 269.417 142.034 268.375 C 141.978 267.195,142.309 267.005,143.349 267.619 M155.150 267.596 C 157.277 268.447,156.391 271.831,154.042 271.833 L 153.333 271.833 153.333 269.583 L 153.333 267.333 153.913 267.333 C 154.232 267.333,154.789 267.452,155.150 267.596 M187.601 267.753 C 188.278 268.430,187.840 269.341,186.813 269.390 L 186.250 269.417 186.200 268.375 L 186.151 267.333 186.666 267.333 C 186.995 267.333,187.334 267.485,187.601 267.753 M228.317 267.596 C 230.372 268.419,229.687 271.610,227.414 271.799 L 226.500 271.875 226.500 269.604 L 226.500 267.333 227.080 267.333 C 227.399 267.333,227.956 267.452,228.317 267.596 M261.394 267.679 C 262.261 268.360,261.820 269.667,260.724 269.667 L 260.167 269.667 260.167 268.500 C 260.167 267.178,260.486 266.964,261.394 267.679 M236.239 270.025 C 236.983 270.364,237.021 271.533,236.293 271.728 C 235.166 272.030,235.000 271.915,235.000 270.833 C 235.000 269.732,235.245 269.572,236.239 270.025 " stroke="none" fill="#043c14" fill-rule="evenodd"></path><path id="path2" d="" stroke="none" fill="#8c640c" fill-rule="evenodd"></path><path id="path3" d="" stroke="none" fill="#044414" fill-rule="evenodd"></path><path id="path4" d="M268.060 244.500 C 268.060 245.371,268.088 245.727,268.123 245.292 C 268.157 244.856,268.157 244.144,268.123 243.708 C 268.088 243.273,268.060 243.629,268.060 244.500 M217.888 257.083 C 217.889 257.725,217.919 257.967,217.955 257.621 C 217.991 257.275,217.990 256.750,217.954 256.455 C 217.917 256.159,217.887 256.442,217.888 257.083 " stroke="none" fill="#285010" fill-rule="evenodd"></path></g></svg>