<svg width="530" height="410" viewBox="0 0 530 410" fill="none" xmlns="http://www.w3.org/2000/svg">
<path d="M476.894 362.399H441.787V362.664H476.894V362.399Z" fill="#EBEBEB"/>
<path d="M351.093 365.283H341.882V365.548H351.093V365.283Z" fill="#EBEBEB"/>
<path d="M440.727 352.563H420.385V352.828H440.727V352.563Z" fill="#EBEBEB"/>
<path d="M101.389 354.343H55.6076V354.608H101.389V354.343Z" fill="#EBEBEB"/>
<path d="M117.543 354.343H110.834V354.608H117.543V354.343Z" fill="#EBEBEB"/>
<path d="M238.659 358.817H139.358V359.082H238.659V358.817Z" fill="#EBEBEB"/>
<path d="M530 345.344H0V345.609H530V345.344Z" fill="#EBEBEB"/>
<path d="M257.262 279.38C216.823 271.091 177.963 230.928 148.962 253.506C115.275 279.73 84.8954 280.832 84.8954 280.832C154.643 280.832 147.934 236.482 194.881 262.325C218.296 275.204 242.634 279.189 257.262 280.345V279.38Z" fill="#EBEBEB"/>
<path d="M400.744 265.643C360.305 257.353 321.434 217.19 292.433 239.768C258.746 265.992 228.377 267.105 228.377 267.105C298.114 267.105 291.405 222.744 338.352 248.587C361.767 261.466 386.116 265.452 400.744 266.607V265.643Z" fill="#EBEBEB"/>
<path d="M394.596 244.05L413.294 255.88L411.28 241.74L433.105 254.099C421.096 237.203 409.87 213.883 400.754 192.1L400.288 188.867L414.799 197.082C406.319 185.157 398.433 168.462 392.189 153.198L396.588 155.986L395.528 148.629L406.881 155.053C399.567 144.76 392.804 129.878 387.716 117.073V117.02L393.854 120.497C385.501 108.741 378.484 85.9302 378.484 85.9302C378.484 85.9302 371.466 108.741 363.103 120.497L369.251 117.02V117.105C364.152 129.91 357.4 144.792 350.076 155.085L361.46 148.629L360.4 155.986L364.81 153.198C358.556 168.419 350.669 185.157 342.189 197.082L356.701 188.867L356.245 192.1C347.118 213.883 335.893 237.203 323.883 254.099L345.708 241.74L343.663 255.88L362.372 244.04L366.103 260.48L370.152 255.106L365.456 307.884C365.456 307.884 357.072 309.028 354.687 310.269C352.906 311.201 350.065 316.862 350.065 316.862C350.065 316.862 351.644 317.084 353.372 317.19H354.517H354.581C354.941 317.19 355.301 317.19 355.641 317.19H355.715C356.021 317.174 356.325 317.139 356.626 317.084H356.679C356.921 317.039 357.156 316.964 357.379 316.862C358.322 316.374 359.34 314.085 360.368 313.862C362.414 313.427 366.145 316.3 368.159 316.862L369.092 317.084C370.212 317.319 371.345 317.492 372.484 317.604C372.908 317.657 373.332 317.689 373.767 317.72C375.081 317.826 376.459 317.89 377.826 317.901C379.194 317.911 380.582 317.901 381.886 317.773C383.773 317.681 385.644 317.375 387.462 316.862C387.706 316.777 387.981 316.66 388.278 316.523C389.465 315.982 390.992 315.07 392.412 314.403C393.278 313.936 394.261 313.73 395.242 313.809C395.393 313.85 395.536 313.914 395.666 314C396.023 314.248 396.35 314.536 396.641 314.858C397.214 315.472 397.746 316.124 398.231 316.809H405.545C405.545 316.809 402.715 311.148 400.934 310.216C398.539 308.975 390.154 307.831 390.154 307.831L385.278 253.018L390.854 260.438L394.596 244.05Z" fill="#F5F5F5"/>
<path d="M118.529 263.915L136.433 275.246L134.503 261.71L155.396 273.54C143.906 257.364 133.136 235.04 124.423 214.18L123.978 211.084L137.874 218.95C129.755 207.533 122.207 191.506 116.218 176.931L120.458 179.602L119.398 172.564L130.274 178.712C123.267 168.854 116.791 154.608 111.915 142.343V142.269L117.798 145.598C109.795 134.34 103.074 112.504 103.074 112.504C103.074 112.504 96.3752 134.34 88.3828 145.64L94.2552 142.312V142.386C89.3898 154.65 82.9132 168.886 75.9066 178.754L86.7716 172.606L85.7646 179.56L90.0046 176.889C84.0262 191.464 76.4684 207.491 68.3594 218.907L82.2454 211.042L81.8108 214.137C73.0764 234.998 62.328 257.322 50.827 273.497L71.6878 261.71L69.7586 275.246L87.6726 263.915L91.2554 279.656L95.1244 274.515L90.63 325.034C90.63 325.034 82.6058 326.094 80.3162 327.335C78.6096 328.214 75.896 333.631 75.896 333.631C75.896 333.631 77.4012 333.854 79.076 333.949H80.136H80.1996C80.5494 333.949 80.8886 333.949 81.2066 333.949H81.2808C81.5988 333.949 81.8956 333.896 82.1606 333.854C82.3931 333.813 82.6183 333.738 82.8284 333.631C83.7294 333.165 84.7046 330.981 85.701 330.769C87.6514 330.356 91.2236 333.101 93.121 333.631C93.4139 333.72 93.711 333.794 94.0114 333.854C95.0869 334.075 96.1731 334.241 97.2656 334.352L98.4952 334.468C99.746 334.564 101.06 334.617 102.385 334.627C103.71 334.638 105.014 334.627 106.265 334.511C108.059 334.419 109.837 334.124 111.565 333.631C111.833 333.546 112.095 333.444 112.349 333.324C113.494 332.794 114.946 331.924 116.303 331.331C117.136 330.888 118.077 330.693 119.017 330.769C119.162 330.81 119.301 330.871 119.43 330.949C119.768 331.189 120.08 331.463 120.363 331.765C120.909 332.356 121.419 332.979 121.889 333.631H128.885C128.885 333.631 126.172 328.214 124.465 327.335C122.176 326.137 114.151 325.034 114.151 325.034L109.487 272.564L114.787 279.656L118.529 263.915Z" fill="#F5F5F5"/>
<path d="M453.245 292.037L464.736 299.34L463.496 290.659L476.894 298.248C469.527 287.871 462.626 273.55 457.03 260.184L456.743 258.191L465.658 263.236C460.453 255.912 455.609 245.64 451.772 236.291L454.475 237.998L453.828 233.482L460.803 237.436C456.309 231.076 452.154 221.971 449.027 214.116V214.063L452.79 216.183C447.659 208.964 443.356 194.983 443.356 194.983C443.356 194.983 439.041 208.996 433.911 216.183L437.685 214.063V214.116C434.558 221.981 430.413 231.076 425.919 237.436L432.883 233.482L432.247 237.998L434.95 236.291C431.113 245.64 426.268 255.912 421.064 263.236L429.968 258.191L429.692 260.184C424.085 273.55 417.195 287.871 409.817 298.248L423.216 290.659L421.975 299.34L433.455 292.079L435.755 302.17L438.236 298.874L435.353 331.278C435.353 331.278 430.212 331.988 428.738 332.751C427.678 333.313 425.908 336.79 425.908 336.79C425.908 336.79 426.873 336.928 427.933 336.991H428.643H429.289H429.342C429.531 336.982 429.719 336.961 429.904 336.928C430.052 336.906 430.196 336.859 430.328 336.79C430.911 336.493 431.537 335.083 432.173 334.956C433.423 334.691 435.713 336.451 436.953 336.79C437.142 336.846 437.333 336.892 437.526 336.928C438.225 337.077 438.933 337.187 439.646 337.256L440.43 337.32C441.225 337.383 442.073 337.426 442.921 337.426C443.769 337.426 444.606 337.426 445.412 337.352C446.571 337.295 447.72 337.107 448.836 336.79C448.984 336.737 449.154 336.673 449.334 336.588C450.065 336.249 450.998 335.687 451.867 335.316C452.402 335.026 453.011 334.901 453.616 334.956C453.709 334.974 453.796 335.014 453.871 335.073C454.093 335.22 454.296 335.394 454.475 335.592C454.826 335.969 455.152 336.369 455.45 336.79H459.945C459.945 336.79 458.196 333.313 457.104 332.751C455.641 331.988 450.489 331.278 450.489 331.278L447.5 297.623L450.924 302.17L453.245 292.037Z" fill="#F5F5F5"/>
<path d="M226.84 122.945C219.367 103.06 211.258 117.359 211.258 117.359C210.598 112.323 208.466 107.593 205.131 103.761C201.796 99.9302 197.404 97.1678 192.507 95.82C182.882 93.0216 180.189 96.88 179.691 100.94C177.197 99.1958 174.427 97.8842 171.497 97.0602C154.156 92.0146 159.297 114.646 159.297 114.646C159.297 114.646 142.231 102.911 140.461 114.762C138.69 126.613 145.029 125.935 149.778 126.899C152.905 127.525 162.498 127.143 162.498 127.143C165.796 128.912 169.45 129.918 173.189 130.087C176.927 130.255 180.657 129.583 184.101 128.118L185.362 127.578C185.362 127.578 186.793 127.79 188.807 128.012C194.211 129.468 199.947 129.073 205.099 126.889L206.371 126.348C206.371 126.348 231.197 134.605 226.84 122.945Z" fill="#F5F5F5"/>
<path d="M432.554 70.804C423.173 45.841 412.987 63.7868 412.987 63.7868C412.987 63.7868 411.28 43.0956 389.476 36.7674C377.36 33.28 374.021 38.1454 373.385 43.191C370.254 41.0028 366.779 39.3546 363.103 38.315C341.331 31.955 347.786 60.3948 347.786 60.3948C347.786 60.3948 326.353 45.6608 324.137 60.5538C321.922 75.4468 329.872 74.5776 335.797 75.786C339.719 76.581 351.793 76.0934 351.793 76.0934C355.933 78.313 360.518 79.5757 365.21 79.7885C369.903 80.0013 374.584 79.1588 378.908 77.323L380.498 76.6446C380.498 76.6446 382.3 76.9096 384.822 77.1852C391.612 79.0149 398.819 78.5147 405.291 75.7648L406.881 75.097C406.881 75.097 438.066 85.4532 432.554 70.804Z" fill="#F5F5F5"/>
<path d="M173.172 93.7C167.597 78.86 161.512 89.5342 161.512 89.5342C161.021 85.7857 159.436 82.2651 156.955 79.4126C154.474 76.5601 151.207 74.5023 147.563 73.4964C140.397 71.3764 138.383 74.3126 138.023 77.3124C136.162 76.0154 134.099 75.0374 131.917 74.4186C118.996 70.6556 122.822 87.5202 122.822 87.5202C122.822 87.5202 110.102 78.7752 108.788 87.6156C107.473 96.456 112.19 95.9366 115.731 96.6574C118.063 97.1238 125.271 96.8376 125.271 96.8376C127.727 98.1553 130.448 98.9051 133.233 99.0316C136.018 99.1582 138.796 98.6584 141.362 97.569L142.305 97.1662C142.305 97.1662 143.365 97.3252 144.881 97.4842C148.906 98.5724 153.18 98.2775 157.018 96.6468L157.961 96.244C157.961 96.244 176.437 102.371 173.172 93.7Z" fill="#F0F0F0"/>
<path d="M349.334 124.8C343.758 109.96 337.674 120.645 337.674 120.645C337.183 116.895 335.598 113.373 333.117 110.519C330.636 107.664 327.369 105.605 323.724 104.597C316.558 102.477 314.544 105.413 314.184 108.413C312.324 107.116 310.26 106.138 308.078 105.519C295.157 101.767 298.984 118.631 298.984 118.631C298.984 118.631 286.264 109.876 284.949 118.716C283.635 127.556 288.352 127.048 291.892 127.758C294.224 128.235 301.432 127.938 301.432 127.938C303.889 129.256 306.61 130.005 309.394 130.132C312.179 130.259 314.957 129.759 317.523 128.669L318.466 128.267C318.466 128.267 319.526 128.426 321.032 128.585C325.06 129.679 329.339 129.384 333.179 127.747L334.123 127.344C334.123 127.344 352.598 133.492 349.334 124.8Z" fill="#F0F0F0"/>
<path d="M259.891 389.133C373.398 389.133 465.414 383.76 465.414 377.133C465.414 370.506 373.398 365.134 259.891 365.134C146.383 365.134 54.3674 370.506 54.3674 377.133C54.3674 383.76 146.383 389.133 259.891 389.133Z" fill="#F5F5F5"/>
<path d="M446.186 326.995C444.066 325.935 436.646 324.875 436.646 324.875L430.816 259.304H420.619L414.789 324.875C414.789 324.875 407.369 325.935 405.249 326.995C403.669 327.822 401.157 332.825 401.157 332.825C401.157 332.825 406.192 333.567 407.634 332.825C408.46 332.391 409.361 330.366 410.284 330.175C412.086 329.794 415.393 332.295 417.174 332.825C421.286 333.96 430.201 334.14 434.261 332.825C436.02 332.264 439.349 329.794 441.151 330.175C442.073 330.366 443.801 332.825 443.801 332.825H450.277C450.277 332.825 447.765 327.822 446.186 326.995Z" fill="#263238"/>
<path opacity="0.6" d="M446.186 326.995C444.066 325.935 436.646 324.875 436.646 324.875L430.816 259.304H420.619L414.789 324.875C414.789 324.875 407.369 325.935 405.249 326.995C403.669 327.822 401.157 332.825 401.157 332.825C401.157 332.825 406.192 333.567 407.634 332.825C408.46 332.391 409.361 330.366 410.284 330.175C412.086 329.794 415.393 332.295 417.174 332.825C421.286 333.96 430.201 334.14 434.261 332.825C436.02 332.264 439.349 329.794 441.151 330.175C442.073 330.366 443.801 332.825 443.801 332.825H450.277C450.277 332.825 447.765 327.822 446.186 326.995Z" fill="white"/>
<path opacity="0.1" d="M444.331 328.32C443.083 327.569 441.68 327.116 440.229 326.995C439.021 327.067 437.822 327.244 436.646 327.525V324.875L430.816 259.304H424.392L422.739 286.45L425.717 284.065L424.223 314.01H426.343C426.343 314.01 426.215 324.738 424.551 327.79C423.644 328.814 422.599 329.706 421.445 330.44C421.445 330.44 415.181 327.737 412.965 327.79C410.396 328.062 407.936 328.973 405.81 330.44C405.106 331.239 404.534 332.144 404.114 333.122C405.306 333.268 406.515 333.167 407.665 332.825C408.492 332.391 409.393 330.366 410.315 330.175C412.117 329.794 415.425 332.295 417.205 332.825C421.318 333.96 430.233 334.14 434.293 332.825C436.052 332.264 439.381 329.794 441.183 330.175C442.105 330.366 443.833 332.825 443.833 332.825H446.864C446.143 331.14 445.2 329.02 444.331 328.32Z" fill="black"/>
<path d="M474.679 277.26C448.391 240.266 426.311 168.525 426.311 168.525C426.311 168.525 404.231 240.266 377.954 277.26L397.267 266.321L395.486 278.84L412.043 268.356L415.361 282.91L426.311 268.356L437.271 282.91L440.578 268.356L457.136 278.84L455.355 266.321L474.679 277.26Z" fill="#00743B"/>
<path opacity="0.3" d="M474.679 277.26C448.391 240.266 426.311 168.525 426.311 168.525C426.311 168.525 404.231 240.266 377.954 277.26L397.267 266.321L395.486 278.84L412.043 268.356L415.361 282.91L426.311 268.356L437.271 282.91L440.578 268.356L457.136 278.84L455.355 266.321L474.679 277.26Z" fill="white"/>
<path d="M458.471 226.772C440.992 202.18 426.311 154.48 426.311 154.48C426.311 154.48 411.63 202.18 394.161 226.772L407.04 219.501L405.863 227.822L416.824 220.9L419.029 230.578L426.311 220.9L433.593 230.578L435.798 220.9L446.811 227.864L445.624 219.543L458.471 226.772Z" fill="#00743B"/>
<path opacity="0.4" d="M458.471 226.772C440.992 202.18 426.311 154.48 426.311 154.48C426.311 154.48 411.63 202.18 394.161 226.772L407.04 219.501L405.863 227.822L416.824 220.9L419.029 230.578L426.311 220.9L433.593 230.578L435.798 220.9L446.811 227.864L445.624 219.543L458.471 226.772Z" fill="white"/>
<path d="M451.465 189.566C437.801 170.327 426.311 133.015 426.311 133.015C426.311 133.015 414.831 170.327 401.157 189.566L411.206 183.874L410.284 190.393L418.891 184.934L420.619 192.513L426.311 184.934L432.014 192.513L433.731 184.934L442.349 190.393L441.416 183.874L451.465 189.566Z" fill="#00743B"/>
<path opacity="0.5" d="M451.465 189.566C437.801 170.327 426.311 133.015 426.311 133.015C426.311 133.015 414.831 170.327 401.157 189.566L411.206 183.874L410.284 190.393L418.891 184.934L420.619 192.513L426.311 184.934L432.014 192.513L433.731 184.934L442.349 190.393L441.416 183.874L451.465 189.566Z" fill="white"/>
<path d="M439.9 158.943C432.48 148.534 426.29 128.341 426.29 128.341C426.29 128.341 420.078 148.481 412.679 158.943L418.117 155.869L417.64 159.42L422.293 156.473L423.226 160.565L426.311 156.473L429.395 160.565L430.328 156.473L434.992 159.42L434.483 155.901L439.9 158.943Z" fill="#00743B"/>
<path opacity="0.6" d="M439.9 158.943C432.48 148.534 426.29 128.341 426.29 128.341C426.29 128.341 420.078 148.481 412.679 158.943L418.117 155.869L417.64 159.42L422.293 156.473L423.226 160.565L426.311 156.473L429.395 160.565L430.328 156.473L434.992 159.42L434.483 155.901L439.9 158.943Z" fill="white"/>
<path d="M104.792 334.384C103.127 333.525 97.2868 332.719 97.2868 332.719L92.697 281.15H84.6728L80.0936 332.719C80.0936 332.719 74.253 333.525 72.5888 334.384C71.338 335.03 69.4088 338.973 69.4088 338.973C69.4088 338.973 73.3732 339.556 74.5074 338.973C75.154 338.634 75.8642 337.044 76.6274 336.853C78.0478 336.557 80.6448 338.56 82.044 338.973C85.2876 339.864 92.2942 340.033 95.4954 338.973C96.8734 338.528 99.4916 336.588 100.912 336.853C101.633 337.012 103.032 338.973 103.032 338.973H108.12C108.12 338.973 106 335.03 104.792 334.384Z" fill="#263238"/>
<path opacity="0.6" d="M104.792 334.384C103.127 333.525 97.2868 332.719 97.2868 332.719L92.697 281.15H84.6728L80.0936 332.719C80.0936 332.719 74.253 333.525 72.5888 334.384C71.338 335.03 69.4088 338.973 69.4088 338.973C69.4088 338.973 73.3732 339.556 74.5074 338.973C75.154 338.634 75.8642 337.044 76.6274 336.853C78.0478 336.557 80.6448 338.56 82.044 338.973C85.2876 339.864 92.2942 340.033 95.4954 338.973C96.8734 338.528 99.4916 336.588 100.912 336.853C101.633 337.012 103.032 338.973 103.032 338.973H108.12C108.12 338.973 106 335.03 104.792 334.384Z" fill="white"/>
<path opacity="0.1" d="M103.329 335.433C102.364 334.842 101.276 334.479 100.149 334.373C99.202 334.433 98.2621 334.575 97.3398 334.797V332.677L92.75 281.108H87.6408L86.337 302.52L88.6902 300.644L87.5136 324.197H89.1566C89.1566 324.197 89.0506 332.677 87.7468 335.03C87.0348 335.849 86.2104 336.563 85.2982 337.15C85.2982 337.15 80.3798 335.03 78.6308 335.03C76.6067 335.254 74.6712 335.983 73.0022 337.15C72.4519 337.785 72.0015 338.5 71.6666 339.27C72.6056 339.383 73.5577 339.304 74.465 339.037C75.1116 338.698 75.8218 337.108 76.585 336.917C78.0054 336.62 80.6024 338.624 82.0016 339.037C85.2452 339.927 92.2518 340.097 95.453 339.037C96.831 338.592 99.4492 336.652 100.87 336.917C101.59 337.076 102.99 339.037 102.99 339.037H105.364C104.902 337.726 104.213 336.506 103.329 335.433Z" fill="black"/>
<path d="M127.2 295.27C106.519 266.173 89.1566 209.738 89.1566 209.738C89.1566 209.738 71.7832 266.173 51.1132 295.27L66.3136 286.62L64.9144 296.467L77.9312 288.221L80.56 299.711L89.1778 288.263L97.7956 299.711L100.393 288.263L113.42 296.51L112 286.62L127.2 295.27Z" fill="#00743B"/>
<path opacity="0.3" d="M127.2 295.27C106.519 266.173 89.1566 209.738 89.1566 209.738C89.1566 209.738 71.7832 266.173 51.1132 295.27L66.3136 286.62L64.9144 296.467L77.9312 288.221L80.56 299.711L89.1778 288.263L97.7956 299.711L100.393 288.263L113.42 296.51L112 286.62L127.2 295.27Z" fill="white"/>
<path d="M114.48 255.562C100.7 236.217 89.1884 198.693 89.1884 198.693C89.1884 198.693 77.6344 236.217 63.8968 255.562L73.9986 249.838L73.0658 256.389L81.726 250.898L83.4538 258.519L89.1884 250.898L94.9124 258.519L96.6508 250.898L105.311 256.389L104.378 249.838L114.48 255.562Z" fill="#00743B"/>
<path opacity="0.4" d="M114.48 255.562C100.7 236.217 89.1884 198.693 89.1884 198.693C89.1884 198.693 77.6344 236.217 63.8968 255.562L73.9986 249.838L73.0658 256.389L81.726 250.898L83.4538 258.519L89.1884 250.898L94.9124 258.519L96.6508 250.898L105.311 256.389L104.378 249.838L114.48 255.562Z" fill="white"/>
<path d="M108.936 226.295C98.1878 211.159 89.1566 181.775 89.1566 181.775C89.1566 181.775 80.1254 211.127 69.3664 226.295L77.274 221.812L76.5426 226.942L83.316 222.649L84.6728 228.606L89.1566 222.649L93.6404 228.606L94.9866 222.649L101.76 226.942L101.029 221.812L108.936 226.295Z" fill="#00743B"/>
<path opacity="0.5" d="M108.936 226.295C98.1878 211.159 89.1566 181.775 89.1566 181.775C89.1566 181.775 80.1254 211.127 69.3664 226.295L77.274 221.812L76.5426 226.942L83.316 222.649L84.6728 228.606L89.1566 222.649L93.6404 228.606L94.9866 222.649L101.76 226.942L101.029 221.812L108.936 226.295Z" fill="white"/>
<path d="M99.8626 202.202C94.0432 194.018 89.1566 178.129 89.1566 178.129C89.1566 178.129 84.27 194.029 78.4506 202.202L82.6906 199.785L82.2984 202.551L85.966 200.23L86.6974 203.41L89.1248 200.23L91.5522 203.41L92.2836 200.23L95.9512 202.551L95.5484 199.785L99.8626 202.202Z" fill="#00743B"/>
<path opacity="0.6" d="M99.8626 202.202C94.0432 194.018 89.1566 178.129 89.1566 178.129C89.1566 178.129 84.27 194.029 78.4506 202.202L82.6906 199.785L82.2984 202.551L85.966 200.23L86.6974 203.41L89.1248 200.23L91.5522 203.41L92.2836 200.23L95.9512 202.551L95.5484 199.785L99.8626 202.202Z" fill="white"/>
<path d="M322.781 228.892C322.798 228.681 322.772 228.467 322.703 228.266C322.634 228.065 322.524 227.881 322.38 227.724C322.236 227.568 322.061 227.443 321.866 227.357C321.672 227.272 321.461 227.228 321.249 227.228C321.036 227.228 320.826 227.272 320.631 227.357C320.437 227.443 320.262 227.568 320.118 227.724C319.974 227.881 319.864 228.065 319.795 228.266C319.726 228.467 319.7 228.681 319.717 228.892C319.717 229.163 319.789 229.43 319.927 229.663C320.065 229.896 320.264 230.088 320.502 230.217V309.495H321.996V230.217C322.234 230.088 322.433 229.896 322.571 229.663C322.709 229.43 322.781 229.163 322.781 228.892Z" fill="#263238"/>
<path opacity="0.5" d="M322.781 228.892C322.798 228.681 322.772 228.467 322.703 228.266C322.634 228.065 322.524 227.881 322.38 227.724C322.236 227.568 322.061 227.443 321.866 227.357C321.672 227.272 321.461 227.228 321.249 227.228C321.036 227.228 320.826 227.272 320.631 227.357C320.437 227.443 320.262 227.568 320.118 227.724C319.974 227.881 319.864 228.065 319.795 228.266C319.726 228.467 319.7 228.681 319.717 228.892C319.717 229.163 319.789 229.43 319.927 229.663C320.065 229.896 320.264 230.088 320.502 230.217V309.495H321.996V230.217C322.234 230.088 322.433 229.896 322.571 229.663C322.709 229.43 322.781 229.163 322.781 228.892Z" fill="white"/>
<path d="M320.502 232.56H321.996C321.996 232.56 326.968 230.896 329.957 234.055C332.946 237.213 338.575 235.115 338.575 235.115C338.575 235.115 335.925 242.874 330.54 240.415C325.155 237.955 321.996 240.828 321.996 240.828H320.502V232.56Z" fill="#00743B"/>
<path opacity="0.1" d="M329.215 239.821C329.666 239.965 330.108 240.135 330.54 240.33L330.784 240.436V234.68C330.486 234.477 330.21 234.247 329.957 233.991C329.806 233.834 329.647 233.686 329.48 233.546L329.215 239.821Z" fill="black"/>
<path d="M45.58 346.425C65.4444 337.373 114.681 317.36 161.374 317.36C205.46 317.36 252.715 336.27 274.964 346.446L45.58 346.425Z" fill="#00743B"/>
<path opacity="0.4" d="M45.58 346.425C65.4444 337.373 114.681 317.36 161.374 317.36C205.46 317.36 252.715 336.27 274.964 346.446L45.58 346.425Z" fill="white"/>
<path opacity="0.4" d="M233.772 346.425H274.964C252.704 336.249 205.46 317.339 161.374 317.339C161.374 317.36 268.18 344.528 233.772 346.425Z" fill="white"/>
<path d="M153.636 346.425C182.119 333.398 252.683 304.576 319.579 304.576C382.745 304.576 450.436 331.776 482.321 346.425H153.636Z" fill="#00743B"/>
<path opacity="0.6" d="M153.636 346.425C182.119 333.398 252.683 304.576 319.579 304.576C382.745 304.576 450.436 331.776 482.321 346.425H153.636Z" fill="white"/>
<path opacity="0.5" d="M423.3 346.425H482.3C450.415 331.776 382.713 304.576 319.558 304.576C319.579 304.576 488.141 338.751 423.3 346.425Z" fill="white"/>
<path d="M210.23 298.1L194.415 297.22C193.956 297.19 193.526 296.988 193.211 296.653C192.896 296.319 192.72 295.877 192.719 295.418V294.008C192.719 293.53 192.908 293.072 193.246 292.734C193.584 292.396 194.043 292.206 194.521 292.206H210.336C210.806 292.209 211.256 292.398 211.588 292.732C211.92 293.065 212.106 293.517 212.106 293.987V296.361C212.102 296.6 212.05 296.836 211.952 297.054C211.855 297.273 211.714 297.469 211.539 297.631C211.364 297.794 211.157 297.919 210.932 297.999C210.707 298.08 210.468 298.114 210.23 298.1Z" fill="#00743B"/>
<path d="M213.049 271.238L213.26 271.256C213.391 271.267 213.513 271.33 213.599 271.431C213.684 271.532 213.725 271.663 213.714 271.794L211.95 292.58C211.939 292.712 211.876 292.834 211.775 292.919C211.674 293.004 211.544 293.046 211.412 293.035L211.201 293.017C210.944 292.995 210.694 292.923 210.466 292.805C210.237 292.686 210.034 292.524 209.868 292.327C209.701 292.13 209.576 291.903 209.498 291.657C209.42 291.412 209.391 291.154 209.412 290.897L210.928 273.037C210.948 272.779 211.02 272.528 211.137 272.298C211.255 272.068 211.417 271.863 211.614 271.696C211.811 271.529 212.04 271.403 212.286 271.324C212.532 271.245 212.791 271.216 213.049 271.238Z" fill="#00743B"/>
<path d="M202.46 286.949L203.022 287.245L204.898 285.56L210.58 283.631C210.578 283.495 210.55 283.362 210.495 283.238C210.44 283.114 210.361 283.002 210.262 282.91C210.163 282.817 210.046 282.746 209.918 282.701C209.79 282.655 209.655 282.636 209.52 282.645C206.931 282.883 204.456 283.825 202.365 285.369C202.249 285.469 202.158 285.595 202.099 285.736C202.039 285.877 202.013 286.03 202.022 286.182C202.032 286.335 202.076 286.484 202.152 286.617C202.228 286.749 202.333 286.863 202.46 286.949Z" fill="#00743B"/>
<path d="M161.629 288.369C161.629 283.567 163.749 280.44 166.219 276.709L174.699 263.894C176.819 260.714 178.843 257.428 181.059 254.354C183.433 251.015 186.422 250.972 189.994 250.972H218.614C221.54 250.972 225.844 250.41 225.526 254.767C225.261 258.191 224.593 261.646 224.137 265.06C222.929 274.063 221.717 283.058 220.501 292.047C220.395 292.853 221.625 293.192 221.731 292.386C222.883 283.822 224.035 275.253 225.186 266.681C225.706 262.823 226.31 258.965 226.745 255.096C227.126 251.672 225.049 249.796 221.752 249.711C211.968 249.584 202.174 249.711 192.401 249.711C188.998 249.711 184.981 249.128 182.055 251.301C179.532 253.198 177.815 256.834 176.13 259.399L165.837 274.96C162.986 279.2 160.357 282.878 160.357 288.327C160.357 288.495 160.424 288.657 160.543 288.776C160.662 288.896 160.824 288.963 160.993 288.963C161.161 288.963 161.323 288.896 161.443 288.776C161.562 288.657 161.629 288.495 161.629 288.327V288.369Z" fill="#263238"/>
<g opacity="0.3">
<path d="M161.629 288.369C161.629 283.567 163.749 280.44 166.219 276.709L174.699 263.894C176.819 260.714 178.843 257.428 181.059 254.354C183.433 251.015 186.422 250.972 189.994 250.972H218.614C221.54 250.972 225.844 250.41 225.526 254.767C225.261 258.191 224.593 261.646 224.137 265.06C222.929 274.063 221.717 283.058 220.501 292.047C220.395 292.853 221.625 293.192 221.731 292.386C222.883 283.822 224.035 275.253 225.186 266.681C225.706 262.823 226.31 258.965 226.745 255.096C227.126 251.672 225.049 249.796 221.752 249.711C211.968 249.584 202.174 249.711 192.401 249.711C188.998 249.711 184.981 249.128 182.055 251.301C179.532 253.198 177.815 256.834 176.13 259.399L165.837 274.96C162.986 279.2 160.357 282.878 160.357 288.327C160.357 288.495 160.424 288.657 160.543 288.776C160.662 288.896 160.824 288.963 160.993 288.963C161.161 288.963 161.323 288.896 161.443 288.776C161.562 288.657 161.629 288.495 161.629 288.327V288.369Z" fill="white"/>
</g>
<path d="M199.609 298.746C200.202 296.383 200.775 294.019 201.389 291.666C201.727 289.931 202.58 288.339 203.838 287.098C205.096 285.857 206.7 285.026 208.438 284.712C213.23 283.652 218.053 282.719 222.865 281.733C223.395 281.617 223.172 280.801 222.642 280.917C217.629 281.977 212.53 282.804 207.559 284.034C200.743 285.708 200.234 292.789 198.792 298.513C198.665 299.043 199.481 299.266 199.609 298.746Z" fill="#263238"/>
<g opacity="0.3">
<path d="M199.609 298.746C200.202 296.383 200.775 294.019 201.389 291.666C201.727 289.931 202.58 288.339 203.838 287.098C205.096 285.857 206.7 285.026 208.438 284.712C213.23 283.652 218.053 282.719 222.865 281.733C223.395 281.617 223.172 280.801 222.642 280.917C217.629 281.977 212.53 282.804 207.559 284.034C200.743 285.708 200.234 292.789 198.792 298.513C198.665 299.043 199.481 299.266 199.609 298.746Z" fill="white"/>
</g>
<path d="M238.935 296.457H237.97V284.903C237.97 284.079 237.643 283.289 237.06 282.707C236.478 282.124 235.688 281.797 234.864 281.797H222.473V280.843H234.864C235.942 280.843 236.976 281.27 237.739 282.031C238.502 282.793 238.932 283.825 238.935 284.903V296.457Z" fill="#263238"/>
<g opacity="0.3">
<path d="M238.935 296.457H237.97V284.903C237.97 284.079 237.643 283.289 237.06 282.707C236.478 282.124 235.688 281.797 234.864 281.797H222.473V280.843H234.864C235.942 280.843 236.976 281.27 237.739 282.031C238.502 282.793 238.932 283.825 238.935 284.903V296.457Z" fill="white"/>
</g>
<path d="M181.408 278.14L174.052 273.412C173.989 273.373 173.934 273.32 173.891 273.259C173.848 273.198 173.818 273.129 173.802 273.056C173.787 272.983 173.786 272.907 173.799 272.834C173.813 272.76 173.841 272.69 173.882 272.628C173.965 272.503 174.093 272.414 174.24 272.383C174.387 272.351 174.54 272.378 174.667 272.458L182.013 277.197C182.075 277.235 182.13 277.287 182.173 277.347C182.215 277.407 182.246 277.475 182.261 277.548C182.277 277.62 182.278 277.694 182.265 277.767C182.251 277.84 182.223 277.909 182.182 277.97C182.143 278.033 182.092 278.088 182.032 278.13C181.972 278.173 181.903 278.203 181.831 278.219C181.759 278.235 181.684 278.236 181.612 278.223C181.539 278.209 181.47 278.181 181.408 278.14Z" fill="#263238"/>
<path d="M177.442 274.84L168.018 289.486L169.204 290.249L178.628 275.603L177.442 274.84Z" fill="#263238"/>
<path d="M192.581 309.166V301.1C192.589 300.397 192.814 299.714 193.226 299.145C193.638 298.575 194.216 298.147 194.881 297.92L213.897 291.422C214.238 291.301 214.596 291.236 214.957 291.231H233.709C234.611 291.232 235.476 291.59 236.115 292.227L238.235 294.347C238.872 294.986 239.23 295.851 239.231 296.754V307.354C239.229 307.855 239.027 308.335 238.672 308.688C238.316 309.042 237.835 309.24 237.334 309.24L192.581 309.166Z" fill="#00743B"/>
<path opacity="0.6" d="M192.581 309.166V301.1C192.589 300.397 192.814 299.714 193.226 299.145C193.638 298.575 194.216 298.147 194.881 297.92L213.897 291.422C214.238 291.301 214.596 291.236 214.957 291.231H233.709C234.611 291.232 235.476 291.59 236.115 292.227L238.235 294.347C238.872 294.986 239.23 295.851 239.231 296.754V307.354C239.229 307.855 239.027 308.335 238.672 308.688C238.316 309.042 237.835 309.24 237.334 309.24L192.581 309.166Z" fill="white"/>
<path d="M177.486 309.166L172.038 291.549C171.769 290.694 171.255 289.938 170.559 289.372C169.864 288.807 169.018 288.458 168.127 288.369L158.205 287.309C157.603 287.243 156.995 287.297 156.414 287.468C155.834 287.639 155.293 287.924 154.824 288.305C151.866 290.743 146.153 297.156 148.167 309.187L177.486 309.166Z" fill="#00743B"/>
<path opacity="0.6" d="M177.486 309.166L172.038 291.549C171.769 290.694 171.255 289.938 170.559 289.372C169.864 288.807 169.018 288.458 168.127 288.369L158.205 287.309C157.603 287.243 156.995 287.297 156.414 287.468C155.834 287.639 155.293 287.924 154.824 288.305C151.866 290.743 146.153 297.156 148.167 309.187L177.486 309.166Z" fill="white"/>
<path d="M225.314 250.304H183.846C183.727 250.295 183.613 250.25 183.52 250.175C183.427 250.099 183.359 249.998 183.325 249.883C183.29 249.769 183.291 249.646 183.328 249.532C183.364 249.418 183.434 249.318 183.528 249.244L184.345 248.725C185.293 248.114 186.396 247.787 187.525 247.782H221.71C223.175 247.781 224.588 248.325 225.674 249.308C225.753 249.386 225.809 249.486 225.834 249.594C225.858 249.703 225.851 249.817 225.813 249.922C225.775 250.027 225.708 250.118 225.619 250.186C225.531 250.254 225.425 250.295 225.314 250.304Z" fill="#00743B"/>
<path opacity="0.6" d="M225.314 250.304H183.846C183.727 250.295 183.613 250.25 183.52 250.175C183.427 250.099 183.359 249.998 183.325 249.883C183.29 249.769 183.291 249.646 183.328 249.532C183.364 249.418 183.434 249.318 183.528 249.244L184.345 248.725C185.293 248.114 186.396 247.787 187.525 247.782H221.71C223.175 247.781 224.588 248.325 225.674 249.308C225.753 249.386 225.809 249.486 225.834 249.594C225.858 249.703 225.851 249.817 225.813 249.922C225.775 250.027 225.708 250.118 225.619 250.186C225.531 250.254 225.425 250.295 225.314 250.304Z" fill="white"/>
<path d="M235.627 307.831H147.987C147.308 307.831 146.757 308.381 146.757 309.06V309.283C146.757 309.962 147.308 310.512 147.987 310.512H235.627C236.306 310.512 236.857 309.962 236.857 309.283V309.06C236.857 308.381 236.306 307.831 235.627 307.831Z" fill="#263238"/>
<path opacity="0.3" d="M235.627 307.831H147.987C147.308 307.831 146.757 308.381 146.757 309.06V309.283C146.757 309.962 147.308 310.512 147.987 310.512H235.627C236.306 310.512 236.857 309.962 236.857 309.283V309.06C236.857 308.381 236.306 307.831 235.627 307.831Z" fill="white"/>
<path d="M171.476 308.191L170.3 304.714L167.48 301.269L162.074 299.043H156.997L152.152 302.054L148.909 307.597L148.379 310.512H171.794L171.476 308.191Z" fill="#00743B"/>
<path d="M166.683 317.051C170.292 313.441 170.292 307.589 166.683 303.979C163.073 300.369 157.22 300.369 153.611 303.979C150.001 307.589 150.001 313.441 153.611 317.051C157.22 320.661 163.073 320.661 166.683 317.051Z" fill="#263238"/>
<path d="M149.46 310.512C149.415 309.077 149.658 307.648 150.176 306.309C150.694 304.97 151.476 303.749 152.475 302.718C153.474 301.687 154.67 300.867 155.993 300.307C157.315 299.747 158.736 299.459 160.171 299.459C161.607 299.459 163.028 299.747 164.35 300.307C165.672 300.867 166.868 301.687 167.867 302.718C168.866 303.749 169.648 304.97 170.166 306.309C170.684 307.648 170.928 309.077 170.883 310.512C170.883 311.572 172.61 311.572 172.568 310.512C172.568 307.223 171.261 304.069 168.936 301.743C166.61 299.417 163.455 298.11 160.166 298.11C156.877 298.11 153.722 299.417 151.396 301.743C149.071 304.069 147.764 307.223 147.764 310.512C147.764 311.572 149.428 311.572 149.46 310.512Z" fill="#00743B"/>
<g opacity="0.4">
<path d="M149.46 310.512C149.415 309.077 149.658 307.648 150.176 306.309C150.694 304.97 151.476 303.749 152.475 302.718C153.474 301.687 154.67 300.867 155.993 300.307C157.315 299.747 158.736 299.459 160.171 299.459C161.607 299.459 163.028 299.747 164.35 300.307C165.672 300.867 166.868 301.687 167.867 302.718C168.866 303.749 169.648 304.97 170.166 306.309C170.684 307.648 170.928 309.077 170.883 310.512C170.883 311.572 172.61 311.572 172.568 310.512C172.568 307.223 171.261 304.069 168.936 301.743C166.61 299.417 163.455 298.11 160.166 298.11C156.877 298.11 153.722 299.417 151.396 301.743C149.071 304.069 147.764 307.223 147.764 310.512C147.764 311.572 149.428 311.572 149.46 310.512Z" fill="white"/>
</g>
<path opacity="0.5" d="M166.738 310.512C166.738 311.816 166.351 313.091 165.627 314.175C164.902 315.26 163.873 316.105 162.668 316.604C161.463 317.103 160.137 317.233 158.859 316.979C157.58 316.724 156.405 316.097 155.483 315.174C154.561 314.252 153.933 313.078 153.678 311.799C153.424 310.52 153.554 309.194 154.053 307.989C154.552 306.785 155.398 305.755 156.482 305.03C157.566 304.306 158.841 303.919 160.145 303.919C161.893 303.919 163.57 304.614 164.807 305.85C166.043 307.087 166.738 308.764 166.738 310.512Z" fill="white"/>
<path d="M162.466 310.512C162.466 310.972 162.33 311.42 162.075 311.802C161.82 312.184 161.457 312.481 161.033 312.657C160.609 312.833 160.142 312.879 159.692 312.789C159.242 312.7 158.828 312.479 158.503 312.154C158.179 311.829 157.958 311.416 157.868 310.965C157.778 310.515 157.824 310.048 158 309.624C158.176 309.2 158.473 308.837 158.855 308.582C159.237 308.327 159.686 308.191 160.145 308.191C160.76 308.191 161.351 308.436 161.786 308.871C162.222 309.306 162.466 309.897 162.466 310.512Z" fill="#00743B"/>
<path d="M215.498 310.512C215.498 307.673 216.626 304.95 218.634 302.942C220.641 300.934 223.365 299.806 226.204 299.806C229.043 299.806 231.767 300.934 233.774 302.942C235.782 304.95 236.91 307.673 236.91 310.512C236.91 311.572 238.638 311.572 238.606 310.512C238.606 307.223 237.299 304.069 234.974 301.743C232.648 299.417 229.493 298.11 226.204 298.11C222.915 298.11 219.76 299.417 217.434 301.743C215.109 304.069 213.802 307.223 213.802 310.512C213.802 311.572 215.456 311.572 215.498 310.512Z" fill="#00743B"/>
<path d="M237.588 308.191L236.422 304.714L233.603 301.269L228.197 299.043H223.119L218.275 302.054L215.032 307.597L214.502 310.512H237.906L237.588 308.191Z" fill="#00743B"/>
<g opacity="0.4">
<path d="M215.498 310.512C215.498 307.673 216.626 304.95 218.634 302.942C220.641 300.934 223.365 299.806 226.204 299.806C229.043 299.806 231.767 300.934 233.774 302.942C235.782 304.95 236.91 307.673 236.91 310.512C236.91 311.572 238.638 311.572 238.606 310.512C238.606 307.223 237.299 304.069 234.974 301.743C232.648 299.417 229.493 298.11 226.204 298.11C222.915 298.11 219.76 299.417 217.434 301.743C215.109 304.069 213.802 307.223 213.802 310.512C213.802 311.572 215.456 311.572 215.498 310.512Z" fill="white"/>
</g>
<path d="M232.739 317.044C236.348 313.434 236.348 307.581 232.739 303.972C229.129 300.362 223.276 300.362 219.667 303.972C216.057 307.581 216.057 313.434 219.667 317.044C223.276 320.653 229.129 320.653 232.739 317.044Z" fill="#263238"/>
<path opacity="0.5" d="M232.797 310.512C232.797 311.816 232.411 313.091 231.686 314.175C230.962 315.26 229.932 316.105 228.727 316.604C227.522 317.103 226.197 317.233 224.918 316.979C223.639 316.724 222.464 316.097 221.542 315.174C220.62 314.252 219.992 313.078 219.737 311.799C219.483 310.52 219.614 309.194 220.113 307.989C220.612 306.785 221.457 305.755 222.541 305.03C223.625 304.306 224.9 303.919 226.204 303.919C227.952 303.922 229.627 304.618 230.863 305.853C232.099 307.089 232.794 308.765 232.797 310.512Z" fill="white"/>
<path d="M228.525 310.512C228.525 310.972 228.389 311.42 228.134 311.802C227.879 312.184 227.517 312.481 227.092 312.657C226.668 312.833 226.201 312.879 225.751 312.789C225.301 312.7 224.887 312.479 224.563 312.154C224.238 311.829 224.017 311.416 223.927 310.965C223.838 310.515 223.884 310.048 224.059 309.624C224.235 309.2 224.533 308.837 224.914 308.582C225.296 308.327 225.745 308.191 226.204 308.191C226.82 308.191 227.41 308.436 227.845 308.871C228.281 309.306 228.525 309.897 228.525 310.512Z" fill="#00743B"/>
<path d="M81.3656 371.717L115.551 308.117L110.049 372.12C110.264 372.301 110.43 372.535 110.531 372.797C110.632 373.06 110.665 373.344 110.628 373.624C110.59 373.903 110.482 374.168 110.315 374.394C110.147 374.621 109.926 374.801 109.67 374.919C109.414 375.037 109.133 375.089 108.852 375.069C108.571 375.05 108.299 374.96 108.062 374.807C107.825 374.655 107.631 374.446 107.496 374.198C107.362 373.951 107.292 373.673 107.293 373.392C107.296 373.101 107.376 372.816 107.525 372.567C107.674 372.317 107.887 372.112 108.141 371.971L112.848 317.201L83.0616 372.65C83.1793 372.88 83.2444 373.133 83.2524 373.392C83.2583 373.718 83.1694 374.038 82.9967 374.315C82.824 374.591 82.5748 374.812 82.2793 374.949C81.9838 375.087 81.6547 375.136 81.3318 375.091C81.009 375.045 80.7063 374.907 80.4605 374.693C80.2146 374.479 80.0361 374.198 79.9466 373.885C79.8571 373.571 79.8605 373.238 79.9563 372.927C80.0521 372.615 80.2362 372.338 80.4863 372.129C80.7365 371.92 81.0419 371.788 81.3656 371.749V371.717Z" fill="#263238"/>
<path opacity="0.3" d="M81.3656 371.717L115.551 308.117L110.049 372.12C110.264 372.301 110.43 372.535 110.531 372.797C110.632 373.06 110.665 373.344 110.628 373.624C110.59 373.903 110.482 374.168 110.315 374.394C110.147 374.621 109.926 374.801 109.67 374.919C109.414 375.037 109.133 375.089 108.852 375.069C108.571 375.05 108.299 374.96 108.062 374.807C107.825 374.655 107.631 374.446 107.496 374.198C107.362 373.951 107.292 373.673 107.293 373.392C107.296 373.101 107.376 372.816 107.525 372.567C107.674 372.317 107.887 372.112 108.141 371.971L112.848 317.201L83.0616 372.65C83.1793 372.88 83.2444 373.133 83.2524 373.392C83.2583 373.718 83.1694 374.038 82.9967 374.315C82.824 374.591 82.5748 374.812 82.2793 374.949C81.9838 375.087 81.6547 375.136 81.3318 375.091C81.009 375.045 80.7063 374.907 80.4605 374.693C80.2146 374.479 80.0361 374.198 79.9466 373.885C79.8571 373.571 79.8605 373.238 79.9563 372.927C80.0521 372.615 80.2362 372.338 80.4863 372.129C80.7365 371.92 81.0419 371.788 81.3656 371.749V371.717Z" fill="white"/>
<path d="M113.823 304.046C113.823 304.046 113.494 311.541 114.204 313.904C118.349 327.684 139.358 358.424 148.421 371.367C149.551 372.963 151.245 374.07 153.16 374.463C155.075 374.857 157.068 374.508 158.735 373.487L169.674 366.851C171.348 365.84 172.575 364.231 173.106 362.35C173.637 360.468 173.434 358.455 172.536 356.718C165.286 342.715 147.743 309.866 137.408 299.796C135.638 298.079 128.843 294.909 128.843 294.909L113.823 304.046Z" fill="#263238"/>
<path d="M153.838 321.674L146.418 323.042C145.985 323.127 145.569 323.285 145.188 323.508C144.779 323.756 144.423 324.082 144.14 324.468C143.857 324.854 143.654 325.292 143.54 325.757C143.427 326.221 143.407 326.704 143.48 327.177C143.554 327.649 143.72 328.103 143.969 328.511L158.576 352.605C159.039 353.371 159.649 354.038 160.371 354.567C161.093 355.097 161.911 355.479 162.781 355.692C163.65 355.904 164.553 355.943 165.438 355.807C166.322 355.67 167.171 355.36 167.936 354.895L168.561 354.513C170.107 353.577 171.218 352.065 171.65 350.309C172.081 348.554 171.797 346.699 170.861 345.153L157.654 323.37C157.267 322.732 156.694 322.227 156.012 321.924C155.33 321.621 154.571 321.534 153.838 321.674Z" fill="#00743B"/>
<g opacity="0.5">
<path d="M156.276 325.84C155.279 324.536 153.605 325.215 152.301 325.458C151.256 325.568 150.221 325.76 149.206 326.031C146.121 327.091 149.206 330.695 150.266 332.338C150.398 332.554 150.438 332.814 150.379 333.061C150.319 333.307 150.164 333.52 149.948 333.652C149.731 333.784 149.471 333.825 149.225 333.765C148.978 333.706 148.765 333.551 148.633 333.334C147.086 330.79 143.63 326.19 148.124 324.367C149.752 323.873 151.424 323.542 153.117 323.381C155.089 323.02 156.657 323.126 157.951 324.854C158.693 325.829 157.05 326.815 156.318 325.84H156.276Z" fill="white"/>
</g>
<path d="M145.856 339.726L149.683 340.669L150.16 333.334L148.824 333.006L145.856 339.726Z" fill="#263238"/>
<path opacity="0.3" d="M145.856 339.726L149.683 340.669L150.16 333.334L148.824 333.006L145.856 339.726Z" fill="white"/>
<path d="M117.66 323.54L122.313 317.551C122.587 317.204 122.921 316.909 123.299 316.682C123.708 316.432 124.161 316.266 124.634 316.193C125.106 316.119 125.589 316.139 126.054 316.253C126.519 316.366 126.956 316.57 127.342 316.853C127.728 317.135 128.054 317.492 128.302 317.901L154.94 361.88C156.891 365.06 154.537 367.095 151.326 369.046L150.69 369.438C147.51 371.388 144.605 372.544 142.655 369.321L117.395 327.663C117.014 327.031 116.835 326.297 116.883 325.56C116.93 324.823 117.201 324.118 117.66 323.54Z" fill="#00743B"/>
<g opacity="0.5">
<path d="M120.162 327.6C119.451 326.116 120.84 324.95 121.656 323.9C122.236 323.023 122.881 322.19 123.585 321.409C125.97 319.183 127.719 323.593 128.716 325.236C128.851 325.443 129.061 325.59 129.302 325.646C129.544 325.701 129.797 325.661 130.009 325.533C130.221 325.405 130.375 325.199 130.438 324.96C130.501 324.721 130.469 324.466 130.348 324.25C128.811 321.706 126.331 316.501 122.642 319.65C121.451 320.864 120.385 322.196 119.462 323.625C118.232 325.193 117.607 326.646 118.529 328.585C119.059 329.698 120.649 328.702 120.172 327.6H120.162Z" fill="white"/>
</g>
<path d="M130.21 332.274L126.384 331.341L129.352 324.61L130.687 324.939L130.21 332.274Z" fill="#263238"/>
<path opacity="0.3" d="M130.21 332.274L126.384 331.341L129.352 324.61L130.687 324.939L130.21 332.274Z" fill="white"/>
<path d="M133.263 358.128L130.306 357.407L132.595 352.202L133.634 352.457L133.263 358.128Z" fill="#263238"/>
<path opacity="0.3" d="M133.263 358.128L130.306 357.407L132.595 352.202L133.634 352.457L133.263 358.128Z" fill="white"/>
<g opacity="0.5">
<path d="M142.644 346.309C139.952 348.365 137.252 350.414 134.546 352.457C133.571 353.199 132.585 351.556 133.56 350.824C136.252 348.768 138.952 346.718 141.658 344.676C142.634 343.924 143.619 345.567 142.644 346.309Z" fill="white"/>
</g>
<path d="M129.408 315.801L130.596 315.081L103.424 270.268L102.237 270.988L129.408 315.801Z" fill="#263238"/>
<path d="M95.9618 268.6C100.742 265.696 103.064 268.844 104.23 270.625C106.7 274.388 113.558 286.005 113.558 286.005L111.554 287.214L103.551 274.027C98.4316 277.875 92.8666 279.635 90.8314 276.264C88.7962 272.893 91.16 271.536 95.9618 268.6Z" fill="#263238"/>
<path opacity="0.4" d="M95.9618 268.6C100.742 265.696 103.064 268.844 104.23 270.625C106.7 274.388 113.558 286.005 113.558 286.005L111.554 287.214L103.551 274.027C98.4316 277.875 92.8666 279.635 90.8314 276.264C88.7962 272.893 91.16 271.536 95.9618 268.6Z" fill="white"/>
<path d="M110.055 271.67L108.868 272.39L136.039 317.203L137.227 316.483L110.055 271.67Z" fill="#263238"/>
<path d="M110.876 265.038C106.095 267.943 107.813 271.451 108.851 273.306C111.046 277.228 118.179 288.687 118.179 288.687L120.183 287.468L112.18 274.282C117.957 271.515 122.091 267.392 120.045 264.031C117.999 260.671 115.657 262.145 110.876 265.038Z" fill="#263238"/>
<path opacity="0.4" d="M110.876 265.038C106.095 267.943 107.813 271.451 108.851 273.306C111.046 277.228 118.179 288.687 118.179 288.687L120.183 287.468L112.18 274.282C117.957 271.515 122.091 267.392 120.045 264.031C117.999 260.671 115.657 262.145 110.876 265.038Z" fill="white"/>
<path d="M106.996 286.599L124.709 315.812L123.744 316.395L106.064 287.224L106.996 286.599Z" fill="#263238"/>
<path d="M91.9232 282.857L95.3364 280.79C97.2338 279.645 100.891 280.302 102.831 280.79C103.224 280.886 103.594 281.06 103.919 281.3C104.245 281.54 104.52 281.842 104.728 282.189C106.965 285.889 110.208 291.337 110.208 291.337L108.586 292.312L103.498 283.917C101.596 284.421 99.7548 285.132 98.0076 286.037L94.9654 287.881C94.5211 288.151 93.988 288.233 93.4832 288.11C92.9784 287.987 92.5431 287.668 92.273 287.224L91.213 285.56C91.0801 285.336 90.993 285.089 90.9568 284.831C90.9206 284.574 90.936 284.311 91.0021 284.06C91.0682 283.808 91.1837 283.572 91.3418 283.366C91.5 283.159 91.6976 282.986 91.9232 282.857Z" fill="#263238"/>
<path opacity="0.4" d="M91.9232 282.857L95.3364 280.79C97.2338 279.645 100.891 280.302 102.831 280.79C103.224 280.886 103.594 281.06 103.919 281.3C104.245 281.54 104.52 281.842 104.728 282.189C106.965 285.889 110.208 291.337 110.208 291.337L108.586 292.312L103.498 283.917C101.596 284.421 99.7548 285.132 98.0076 286.037L94.9654 287.881C94.5211 288.151 93.988 288.233 93.4832 288.11C92.9784 287.987 92.5431 287.668 92.273 287.224L91.213 285.56C91.0801 285.336 90.993 285.089 90.9568 284.831C90.9206 284.574 90.936 284.311 91.0021 284.06C91.0682 283.808 91.1837 283.572 91.3418 283.366C91.5 283.159 91.6976 282.986 91.9232 282.857Z" fill="white"/>
<g opacity="0.3">
<path d="M101.495 282.38L95.7074 282.963C95.2092 283.016 95.1986 282.242 95.7074 282.189L101.495 281.606C101.993 281.606 102.004 282.338 101.495 282.38Z" fill="white"/>
</g>
<g opacity="0.3">
<path d="M98.58 284.171L92.7818 284.754C92.2836 284.807 92.273 284.034 92.7818 283.981L98.58 283.44C99.0782 283.44 99.0888 284.171 98.58 284.214V284.171Z" fill="white"/>
</g>
<g opacity="0.3">
<path d="M95.6968 285.899L93.5768 286.111C93.0892 286.164 93.0786 285.39 93.5768 285.337L95.6968 285.125C96.195 285.125 96.2056 285.846 95.6968 285.899Z" fill="white"/>
</g>
<path d="M114.194 306.063L130.446 296.209C131.272 295.708 131.535 294.633 131.034 293.807L128.215 289.157C127.714 288.331 126.639 288.067 125.813 288.568L109.561 298.422C108.735 298.923 108.471 299.998 108.972 300.824L111.791 305.474C112.292 306.3 113.368 306.564 114.194 306.063Z" fill="#00743B"/>
<g opacity="0.5">
<path d="M111.607 305.159L110.887 303.962L130.126 292.302L130.846 293.499C130.885 293.554 130.914 293.615 130.931 293.68L111.735 305.34L111.607 305.159Z" fill="white"/>
<path d="M109.774 302.117L109.169 301.131C109.095 301.002 109.031 300.868 108.979 300.729L128.143 289.069C128.24 289.179 128.329 289.296 128.408 289.418L129.002 290.415L109.774 302.117Z" fill="white"/>
</g>
<path d="M401.878 306.166C400.985 307.046 399.851 307.642 398.62 307.88C397.389 308.117 396.115 307.986 394.959 307.501C393.802 307.017 392.815 306.202 392.12 305.158C391.426 304.114 391.055 302.889 391.055 301.635C391.055 300.381 391.426 299.155 392.12 298.112C392.815 297.068 393.802 296.253 394.959 295.768C396.115 295.284 397.389 295.153 398.62 295.39C399.851 295.628 400.985 296.224 401.878 297.103C402.479 297.695 402.956 298.401 403.282 299.179C403.607 299.956 403.775 300.791 403.775 301.635C403.775 302.478 403.607 303.313 403.282 304.091C402.956 304.869 402.479 305.575 401.878 306.166Z" fill="#263238"/>
<path opacity="0.7" d="M401.878 306.166C400.985 307.046 399.851 307.642 398.62 307.88C397.389 308.117 396.115 307.986 394.959 307.501C393.802 307.017 392.815 306.202 392.12 305.158C391.426 304.114 391.055 302.889 391.055 301.635C391.055 300.381 391.426 299.155 392.12 298.112C392.815 297.068 393.802 296.253 394.959 295.768C396.115 295.284 397.389 295.153 398.62 295.39C399.851 295.628 400.985 296.224 401.878 297.103C402.479 297.695 402.956 298.401 403.282 299.179C403.607 299.956 403.775 300.791 403.775 301.635C403.775 302.478 403.607 303.313 403.282 304.091C402.956 304.869 402.479 305.575 401.878 306.166Z" fill="white"/>
<path opacity="0.1" d="M403.669 302.647C403.08 303.885 402.135 304.917 400.954 305.613C399.774 306.309 398.412 306.635 397.044 306.551C395.677 306.467 394.365 305.975 393.279 305.14C392.193 304.304 391.382 303.163 390.949 301.863C390.845 303.55 391.416 305.209 392.535 306.475C393.654 307.741 395.23 308.511 396.917 308.615C398.604 308.719 400.263 308.149 401.529 307.03C402.795 305.91 403.565 304.334 403.669 302.647Z" fill="black"/>
<g opacity="0.2">
<path d="M397.214 306.442C397.333 306.323 397.495 306.255 397.664 306.255C397.833 306.255 397.995 306.323 398.115 306.442C398.234 306.562 398.301 306.724 398.301 306.893C398.301 307.061 398.234 307.224 398.115 307.343C397.994 307.46 397.833 307.526 397.664 307.526C397.496 307.526 397.334 307.46 397.214 307.343C397.153 307.285 397.105 307.215 397.072 307.137C397.039 307.06 397.022 306.977 397.022 306.893C397.022 306.808 397.039 306.725 397.072 306.648C397.105 306.57 397.153 306.5 397.214 306.442Z" fill="black"/>
<path d="M395.38 304.64C395.502 304.522 395.666 304.456 395.836 304.456C396.006 304.456 396.169 304.522 396.292 304.64C396.409 304.761 396.474 304.922 396.474 305.09C396.474 305.259 396.409 305.42 396.292 305.541C396.232 305.602 396.161 305.65 396.083 305.683C396.005 305.716 395.921 305.733 395.836 305.733C395.751 305.733 395.667 305.716 395.588 305.683C395.51 305.65 395.439 305.602 395.38 305.541C395.263 305.42 395.197 305.259 395.197 305.09C395.197 304.922 395.263 304.761 395.38 304.64Z" fill="black"/>
<path d="M393.599 302.827C393.719 302.708 393.881 302.641 394.05 302.641C394.219 302.641 394.381 302.708 394.5 302.827C394.62 302.947 394.687 303.109 394.687 303.278C394.687 303.447 394.62 303.609 394.5 303.728C394.38 303.846 394.218 303.911 394.05 303.911C393.881 303.911 393.72 303.846 393.599 303.728C393.539 303.67 393.49 303.6 393.457 303.523C393.425 303.445 393.408 303.362 393.408 303.278C393.408 303.194 393.425 303.111 393.457 303.033C393.49 302.956 393.539 302.886 393.599 302.827Z" fill="black"/>
<path d="M391.787 301.015C391.909 300.897 392.072 300.831 392.242 300.831C392.412 300.831 392.576 300.897 392.698 301.015C392.815 301.135 392.881 301.297 392.881 301.465C392.881 301.634 392.815 301.795 392.698 301.916C392.639 301.977 392.568 302.025 392.49 302.058C392.411 302.091 392.327 302.108 392.242 302.108C392.157 302.108 392.073 302.091 391.995 302.058C391.917 302.025 391.846 301.977 391.787 301.916C391.669 301.795 391.604 301.634 391.604 301.465C391.604 301.297 391.669 301.135 391.787 301.015Z" fill="black"/>
<path d="M399.917 305.53C400.007 305.44 400.122 305.378 400.248 305.352C400.373 305.327 400.504 305.34 400.622 305.388C400.74 305.437 400.842 305.52 400.913 305.627C400.984 305.733 401.022 305.858 401.022 305.986C401.022 306.114 400.984 306.239 400.913 306.346C400.842 306.452 400.74 306.535 400.622 306.584C400.504 306.633 400.373 306.645 400.248 306.62C400.122 306.595 400.007 306.533 399.917 306.442C399.799 306.32 399.733 306.156 399.733 305.986C399.733 305.816 399.799 305.653 399.917 305.53Z" fill="black"/>
<path d="M398.115 303.728C398.204 303.64 398.317 303.579 398.44 303.555C398.564 303.531 398.692 303.543 398.808 303.592C398.924 303.64 399.023 303.721 399.093 303.826C399.162 303.93 399.2 304.053 399.2 304.179C399.2 304.305 399.162 304.427 399.093 304.532C399.023 304.637 398.924 304.718 398.808 304.766C398.692 304.814 398.564 304.827 398.44 304.803C398.317 304.778 398.204 304.718 398.115 304.629C398.054 304.571 398.006 304.501 397.973 304.424C397.94 304.346 397.923 304.263 397.923 304.179C397.923 304.095 397.94 304.012 397.973 303.934C398.006 303.857 398.054 303.787 398.115 303.728Z" fill="black"/>
<path d="M396.758 303.008C397.109 303.008 397.394 302.723 397.394 302.372C397.394 302.02 397.109 301.736 396.758 301.736C396.407 301.736 396.122 302.02 396.122 302.372C396.122 302.723 396.407 303.008 396.758 303.008Z" fill="black"/>
<path d="M394.5 300.114C394.589 300.025 394.703 299.965 394.826 299.94C394.949 299.916 395.077 299.929 395.193 299.977C395.309 300.025 395.408 300.107 395.478 300.211C395.548 300.316 395.585 300.439 395.585 300.564C395.585 300.69 395.548 300.813 395.478 300.917C395.408 301.022 395.309 301.103 395.193 301.152C395.077 301.2 394.949 301.213 394.826 301.188C394.703 301.164 394.589 301.104 394.5 301.015C394.383 300.894 394.317 300.733 394.317 300.564C394.317 300.396 394.383 300.234 394.5 300.114Z" fill="black"/>
<path d="M392.698 298.28C392.757 298.219 392.827 298.171 392.904 298.138C392.981 298.105 393.065 298.088 393.149 298.088C393.233 298.088 393.316 298.105 393.393 298.138C393.471 298.171 393.541 298.219 393.599 298.28C393.719 298.399 393.786 298.562 393.786 298.73C393.786 298.899 393.719 299.062 393.599 299.181C393.48 299.3 393.318 299.368 393.149 299.368C392.98 299.368 392.818 299.3 392.698 299.181C392.638 299.123 392.589 299.053 392.556 298.975C392.524 298.898 392.507 298.815 392.507 298.73C392.507 298.646 392.524 298.563 392.556 298.486C392.589 298.408 392.638 298.338 392.698 298.28Z" fill="black"/>
<path d="M400.828 302.827C400.887 302.767 400.957 302.719 401.034 302.686C401.112 302.653 401.195 302.636 401.279 302.636C401.363 302.636 401.446 302.653 401.524 302.686C401.601 302.719 401.671 302.767 401.729 302.827C401.789 302.887 401.835 302.957 401.868 303.034C401.9 303.111 401.916 303.194 401.916 303.278C401.916 303.362 401.9 303.444 401.868 303.522C401.835 303.599 401.789 303.669 401.729 303.728C401.67 303.788 401.6 303.835 401.523 303.867C401.445 303.899 401.363 303.915 401.279 303.915C401.195 303.915 401.112 303.899 401.035 303.867C400.958 303.835 400.888 303.788 400.828 303.728C400.768 303.67 400.72 303.6 400.687 303.523C400.654 303.445 400.637 303.362 400.637 303.278C400.637 303.194 400.654 303.111 400.687 303.033C400.72 302.956 400.768 302.886 400.828 302.827Z" fill="black"/>
<path d="M399.016 301.015C399.136 300.898 399.298 300.832 399.466 300.832C399.635 300.832 399.796 300.898 399.917 301.015C399.976 301.074 400.023 301.144 400.055 301.222C400.087 301.299 400.103 301.382 400.103 301.465C400.103 301.549 400.087 301.632 400.055 301.709C400.023 301.786 399.976 301.857 399.917 301.916C399.858 301.975 399.787 302.022 399.71 302.054C399.633 302.086 399.55 302.102 399.466 302.102C399.383 302.102 399.3 302.086 399.222 302.054C399.145 302.022 399.075 301.975 399.016 301.916C398.899 301.795 398.833 301.634 398.833 301.465C398.833 301.297 398.899 301.135 399.016 301.015Z" fill="black"/>
<path d="M397.214 299.213C397.303 299.124 397.416 299.064 397.539 299.039C397.663 299.015 397.791 299.028 397.907 299.076C398.023 299.124 398.122 299.206 398.192 299.31C398.261 299.415 398.299 299.538 398.299 299.663C398.299 299.789 398.261 299.912 398.192 300.016C398.122 300.121 398.023 300.202 397.907 300.251C397.791 300.299 397.663 300.312 397.539 300.287C397.416 300.263 397.303 300.203 397.214 300.114C397.153 300.055 397.105 299.985 397.072 299.908C397.039 299.831 397.022 299.747 397.022 299.663C397.022 299.579 397.039 299.496 397.072 299.419C397.105 299.341 397.153 299.271 397.214 299.213Z" fill="black"/>
<path d="M395.38 297.4C395.47 297.309 395.585 297.247 395.711 297.222C395.837 297.197 395.967 297.209 396.085 297.258C396.203 297.307 396.305 297.39 396.376 297.496C396.447 297.603 396.485 297.728 396.485 297.856C396.485 297.984 396.447 298.109 396.376 298.216C396.305 298.322 396.203 298.405 396.085 298.454C395.967 298.503 395.837 298.515 395.711 298.49C395.585 298.465 395.47 298.403 395.38 298.312C395.262 298.189 395.196 298.026 395.196 297.856C395.196 297.686 395.262 297.523 395.38 297.4Z" fill="black"/>
<path d="M401.74 300.114C401.829 300.025 401.942 299.965 402.066 299.94C402.189 299.916 402.317 299.929 402.433 299.977C402.549 300.025 402.648 300.107 402.718 300.211C402.788 300.316 402.825 300.439 402.825 300.564C402.825 300.69 402.788 300.813 402.718 300.917C402.648 301.022 402.549 301.103 402.433 301.152C402.317 301.2 402.189 301.213 402.066 301.188C401.942 301.164 401.829 301.104 401.74 301.015C401.679 300.956 401.631 300.886 401.598 300.809C401.565 300.732 401.548 300.648 401.548 300.564C401.548 300.48 401.565 300.397 401.598 300.32C401.631 300.242 401.679 300.172 401.74 300.114Z" fill="black"/>
<path d="M399.917 298.28C399.976 298.219 400.047 298.171 400.125 298.138C400.203 298.105 400.288 298.088 400.373 298.088C400.458 298.088 400.542 298.105 400.62 298.138C400.698 298.171 400.769 298.219 400.828 298.28C400.946 298.401 401.011 298.562 401.011 298.73C401.011 298.899 400.946 299.06 400.828 299.181C400.706 299.299 400.543 299.365 400.373 299.365C400.203 299.365 400.039 299.299 399.917 299.181C399.8 299.06 399.734 298.899 399.734 298.73C399.734 298.562 399.8 298.401 399.917 298.28Z" fill="black"/>
<path d="M398.115 296.499C398.204 296.41 398.317 296.35 398.44 296.326C398.564 296.301 398.692 296.314 398.808 296.362C398.924 296.411 399.023 296.492 399.093 296.597C399.162 296.701 399.2 296.824 399.2 296.95C399.2 297.075 399.162 297.198 399.093 297.303C399.023 297.407 398.924 297.489 398.808 297.537C398.692 297.585 398.564 297.598 398.44 297.574C398.317 297.549 398.204 297.489 398.115 297.4C398.054 297.342 398.006 297.272 397.973 297.194C397.94 297.117 397.923 297.034 397.923 296.95C397.923 296.866 397.94 296.782 397.973 296.705C398.006 296.628 398.054 296.558 398.115 296.499Z" fill="black"/>
</g>
<path d="M372.707 361.88L362.976 352.139L362.806 352.298C364.386 355.181 363.421 359.463 360.283 362.611L353.923 368.971C353.652 369.243 353.5 369.611 353.5 369.994C353.5 370.378 353.652 370.746 353.923 371.017C354.195 371.288 354.563 371.441 354.946 371.441C355.33 371.441 355.698 371.288 355.969 371.017L362.329 364.657C365.424 361.562 369.643 360.587 372.516 362.071L372.707 361.88Z" fill="#00743B"/>
<path d="M325.293 351.662C324.604 351.662 323.904 351.662 323.173 351.662C323.003 351.683 322.848 351.765 322.735 351.893C322.622 352.02 322.559 352.185 322.559 352.356C322.559 352.527 322.622 352.691 322.735 352.819C322.848 352.947 323.003 353.029 323.173 353.05C323.862 353.05 324.561 353.05 325.293 353.05C325.462 353.029 325.618 352.947 325.731 352.819C325.844 352.691 325.906 352.527 325.906 352.356C325.906 352.185 325.844 352.02 325.731 351.893C325.618 351.765 325.462 351.683 325.293 351.662Z" fill="#00743B"/>
<path d="M378.473 327.525C365.342 341.589 347.378 350.166 328.187 351.534C327.296 351.598 327.296 352.987 328.187 352.923C347.739 351.558 366.051 342.849 379.448 328.543C380.063 327.896 379.088 326.911 378.473 327.557V327.525Z" fill="#00743B"/>
<path d="M279.702 156.24L287.567 161.678C287.567 161.678 317.968 165.017 319.367 166.745C320.767 168.472 324.328 170.857 324.402 172.84C324.402 174.048 322.59 176.083 321.615 176.815C320.268 177.811 316.866 179.348 315.255 178.935C314.195 178.648 313.135 176.539 312.467 175.659C311.799 174.779 309.955 171.334 309.955 171.334C309.955 171.334 284.822 171.97 280.921 169.405C277.973 167.361 275.162 165.127 272.505 162.717L279.702 156.24Z" fill="#7F3E3B"/>
<path opacity="0.2" d="M324.455 172.818C324.381 170.836 320.883 168.441 319.42 166.723C319.049 166.278 316.484 165.897 312.901 165.579L298.39 170.02C306.425 169.554 310.05 171.26 310.05 171.26C310.05 171.26 311.841 174.567 312.562 175.585C313.283 176.603 314.311 178.574 315.35 178.86C316.951 179.316 320.353 177.8 321.71 176.74C322.643 176.062 324.498 174.027 324.455 172.818Z" fill="black"/>
<path d="M260.834 149.276C263.495 147.018 269.632 144.516 276.787 149.997C278.712 151.443 280.562 152.985 282.331 154.618C283.172 155.411 283.687 156.488 283.777 157.641C283.868 158.793 283.526 159.937 282.819 160.851L279.554 165.091C278.802 166.076 277.689 166.722 276.461 166.887C275.232 167.052 273.988 166.723 273.003 165.971C267.237 161.54 255.354 153.919 260.834 149.276Z" fill="#00743B"/>
<path d="M281.96 156.579L287.599 160.416C287.599 160.416 283.804 163.946 279.384 168.716L274.434 164.476L281.96 156.579Z" fill="#00743B"/>
<g opacity="0.5">
<path d="M260.834 149.276C263.495 147.018 269.632 144.516 276.787 149.997C278.712 151.443 280.562 152.985 282.331 154.618C283.172 155.411 283.687 156.488 283.777 157.641C283.868 158.793 283.526 159.937 282.819 160.851L279.554 165.091C278.802 166.076 277.689 166.722 276.461 166.887C275.232 167.052 273.988 166.723 273.003 165.971C267.237 161.54 255.354 153.919 260.834 149.276Z" fill="white"/>
<path d="M281.96 156.579L287.599 160.416C287.599 160.416 283.804 163.946 279.384 168.716L274.434 164.476L281.96 156.579Z" fill="white"/>
</g>
<path d="M280.9 342.514L279.437 370.604H286.465L292.041 344.899L280.9 342.514Z" fill="#7F3E3B"/>
<path d="M292.952 212.886C292.952 212.886 305.672 258.117 303.552 287.436C301.432 316.756 289.772 360.226 289.772 360.226L278.907 358.817C278.907 358.817 280.253 320.922 283.306 300.644C284.366 293.892 286.486 291.39 286.953 287.436C287.387 283.896 286.454 282.136 285.352 274.992C283.349 262.113 279.342 243.192 272.547 238.676C268.795 236.164 263.442 239.62 264.767 222.363L292.952 212.886Z" fill="#263238"/>
<path opacity="0.5" d="M280.412 230.196L278.112 234.966L276.3 242.99C280.868 250.559 283.72 264.689 285.352 274.992C285.553 276.296 285.744 277.409 285.935 278.394C287.93 262.871 288.097 247.168 286.433 231.606L280.412 230.196Z" fill="black"/>
<path d="M278.07 360.004L290.175 361.785L292.041 358.626L277.254 356.304L278.07 360.004Z" fill="#263238"/>
<path opacity="0.3" d="M278.07 360.004L290.175 361.785L292.041 358.626L277.254 356.304L278.07 360.004Z" fill="white"/>
<path d="M288.023 366.12L279.172 366.438C278.985 366.442 278.804 366.511 278.661 366.633C278.518 366.754 278.422 366.921 278.388 367.106L276.808 375.501C276.739 375.855 276.811 376.222 277.01 376.523C277.208 376.824 277.516 377.036 277.868 377.112H278.165C281.854 376.921 285.129 376.614 289.719 376.466C295.146 376.285 293.79 376.985 300.171 376.858C304.008 376.784 304.57 372.395 302.937 372.236C295.443 371.547 293.217 369.342 290.217 366.767C289.586 366.298 288.808 366.069 288.023 366.12Z" fill="#00743B"/>
<path opacity="0.5" d="M288.023 366.12L279.172 366.438C278.985 366.442 278.804 366.511 278.661 366.633C278.518 366.754 278.422 366.921 278.388 367.106L276.808 375.501C276.739 375.855 276.811 376.222 277.01 376.523C277.208 376.824 277.516 377.036 277.868 377.112H278.165C281.854 376.921 285.129 376.614 289.719 376.466C295.146 376.285 293.79 376.985 300.171 376.858C304.008 376.784 304.57 372.395 302.937 372.236C295.443 371.547 293.217 369.342 290.217 366.767C289.586 366.298 288.808 366.069 288.023 366.12Z" fill="white"/>
<path d="M224.317 345.429L209.477 359.612L205.502 354.004L219.155 336.249L224.317 345.429Z" fill="#7F3E3B"/>
<path d="M286.953 216.395C286.953 216.395 286.242 281.437 274.233 297.686C262.223 313.936 219.812 351.397 219.812 351.397L212.753 343.616C212.753 343.616 231.674 315.865 245.803 300.368C251.103 294.517 256.001 291.295 257.972 288.496C260.177 285.39 259.7 281.755 260.23 273.296C260.898 262.696 261.375 249.425 260.092 243.277C259.032 238.316 255.852 234.086 255.852 223.486L286.953 216.395Z" fill="#263238"/>
<path d="M211.332 343.574L219.547 352.658L222.992 351.397L213.06 340.203L211.332 343.574Z" fill="#263238"/>
<path opacity="0.3" d="M211.332 343.574L219.547 352.658L222.992 351.397L213.06 340.203L211.332 343.574Z" fill="white"/>
<path d="M212.647 357.195L208.82 349.16C208.742 348.99 208.608 348.852 208.44 348.769C208.272 348.686 208.08 348.663 207.898 348.704L199.566 350.57C199.39 350.606 199.223 350.677 199.074 350.779C198.925 350.88 198.798 351.01 198.699 351.161C198.601 351.311 198.533 351.48 198.5 351.657C198.467 351.834 198.469 352.015 198.506 352.192C198.527 352.287 198.559 352.38 198.602 352.467C200.223 355.785 201.782 358.679 203.753 362.834C206.053 367.752 204.887 366.777 207.516 372.586C209.106 376.095 213.357 374.876 212.816 373.307C210.495 366.152 211.64 363.237 212.816 359.527C213.042 358.754 212.981 357.927 212.647 357.195Z" fill="#00743B"/>
<path opacity="0.5" d="M212.647 357.195L208.82 349.16C208.742 348.99 208.608 348.852 208.44 348.769C208.272 348.686 208.08 348.663 207.898 348.704L199.566 350.57C199.39 350.606 199.223 350.677 199.074 350.779C198.925 350.88 198.798 351.01 198.699 351.161C198.601 351.311 198.533 351.48 198.5 351.657C198.467 351.834 198.469 352.015 198.506 352.192C198.527 352.287 198.559 352.38 198.602 352.467C200.223 355.785 201.782 358.679 203.753 362.834C206.053 367.752 204.887 366.777 207.516 372.586C209.106 376.095 213.357 374.876 212.816 373.307C210.495 366.152 211.64 363.237 212.816 359.527C213.042 358.754 212.981 357.927 212.647 357.195Z" fill="white"/>
<path d="M238.5 175.437C239.56 189.566 247.33 194.866 255.46 229.497C255.46 229.497 273.48 230.557 296.45 217.837C296.45 217.837 291.32 202.668 287.239 186.482C282.999 169.702 279.67 151.82 270.65 148.576C256.912 143.637 237.694 164.625 238.5 175.437Z" fill="#00743B"/>
<path d="M411.047 123.433C411.047 123.433 405.567 105.773 415.467 105.413C425.367 105.053 421.467 120.083 413.697 124.853L302.577 185.973L299.927 181.913L411.047 123.433Z" fill="#263238"/>
<path opacity="0.5" d="M411.047 123.433C411.047 123.433 405.567 105.773 415.467 105.413C425.367 105.053 421.467 120.083 413.697 124.853L302.577 185.973L299.927 181.913L411.047 123.433Z" fill="white"/>
<path opacity="0.3" d="M420.396 107.554C419.474 106.166 417.884 105.328 415.467 105.434C405.567 105.795 411.047 123.454 411.047 123.454C411.047 123.454 408.895 102.434 420.396 107.554Z" fill="black"/>
<path opacity="0.1" d="M265.975 189.566C273.362 190.641 280.843 190.915 288.288 190.383C287.949 189.089 287.61 187.786 287.228 186.482C286.688 184.309 286.168 182.125 285.628 179.952L255.46 175.437H245.04L241.934 179.454C241.934 179.454 244.192 190.69 265.975 189.566Z" fill="black"/>
<path d="M245.719 156.823L244.818 160.756C244.818 160.756 252.789 165.685 259.424 160.756V156.823L263.05 157.597C263.05 157.597 266.696 147.272 260.209 147.834L245.719 156.823Z" fill="#00743B"/>
<path opacity="0.5" d="M245.719 156.823L244.818 160.756C244.818 160.756 252.789 165.685 259.424 160.756V156.823L263.05 157.597C263.05 157.597 266.696 147.272 260.209 147.834L245.719 156.823Z" fill="white"/>
<path opacity="0.1" d="M259.424 149.435L254.845 153.336L248.771 155.381L248.284 155.233L246.376 156.42C247.16 157.756 248.867 159.303 252.577 159.303C259.859 159.303 261.82 151.184 259.424 149.435Z" fill="black"/>
<path d="M234.854 146.308C239.412 153.007 241.722 156.113 247.351 157.565C255.831 159.749 262.467 152.456 260.007 144.506C257.792 137.351 250.722 127.546 242.295 128.924C239.37 129.388 236.75 130.994 235.009 133.389C233.268 135.784 232.548 138.772 233.009 141.697C233.277 143.351 233.906 144.926 234.854 146.308Z" fill="#7F3E3B"/>
<path d="M238.436 137.934C239.463 140.588 240.323 143.303 241.012 146.064C241.669 148.481 246.63 152.329 246.63 152.329L241.648 154.449L232.871 146.626L238.436 137.934Z" fill="#263238"/>
<path d="M247.425 143.34C247.807 143.891 248.39 144.114 248.75 143.859C249.111 143.605 249.058 142.969 248.687 142.428C248.316 141.888 247.711 141.665 247.415 141.919C247.24 142.116 247.145 142.369 247.147 142.632C247.149 142.894 247.248 143.146 247.425 143.34Z" fill="#263238"/>
<path d="M253.806 138.718C254.188 139.259 254.782 139.481 255.131 139.238C255.481 138.994 255.449 138.347 255.068 137.807C254.686 137.266 254.103 137.033 253.753 137.298C253.404 137.563 253.446 138.22 253.806 138.718Z" fill="#263238"/>
<path d="M252.163 140.753C253.883 141.711 255.727 142.425 257.644 142.873C257.516 143.364 257.283 143.822 256.961 144.214C256.639 144.605 256.235 144.922 255.778 145.142L252.163 140.753Z" fill="#630F0F"/>
<path d="M244.235 140.488C244.168 140.485 244.104 140.459 244.054 140.414C244.011 140.389 243.974 140.356 243.944 140.316C243.914 140.276 243.892 140.23 243.88 140.182C243.868 140.133 243.866 140.083 243.874 140.033C243.883 139.984 243.9 139.937 243.927 139.895C244.249 139.359 244.693 138.909 245.224 138.581C245.756 138.252 246.357 138.056 246.98 138.008C247.036 137.999 247.094 138.002 247.149 138.017C247.203 138.032 247.254 138.059 247.298 138.096C247.341 138.133 247.376 138.178 247.4 138.23C247.424 138.282 247.436 138.338 247.436 138.395C247.436 138.452 247.424 138.508 247.4 138.56C247.376 138.611 247.341 138.657 247.298 138.694C247.254 138.731 247.203 138.758 247.149 138.773C247.094 138.788 247.036 138.791 246.98 138.782C246.501 138.842 246.042 139.011 245.638 139.276C245.234 139.54 244.895 139.893 244.648 140.308C244.606 140.377 244.544 140.431 244.47 140.464C244.396 140.496 244.314 140.505 244.235 140.488Z" fill="#263238"/>
<path d="M253.849 133.037C253.839 133.098 253.814 133.155 253.777 133.205C253.74 133.255 253.692 133.295 253.637 133.323C253.193 133.519 252.802 133.818 252.498 134.196C252.193 134.574 251.984 135.02 251.888 135.496C251.877 135.599 251.827 135.694 251.748 135.761C251.669 135.828 251.567 135.862 251.464 135.856C251.364 135.845 251.271 135.797 251.206 135.72C251.141 135.643 251.108 135.543 251.114 135.443C251.218 134.845 251.465 134.281 251.834 133.799C252.204 133.318 252.684 132.932 253.234 132.676C253.279 132.653 253.328 132.639 253.379 132.636C253.429 132.633 253.48 132.64 253.527 132.657C253.575 132.673 253.619 132.7 253.656 132.734C253.693 132.769 253.722 132.81 253.743 132.856C253.79 132.908 253.827 132.97 253.849 133.037Z" fill="#263238"/>
<path d="M261.099 173.2C261.099 173.2 270.035 177.323 284.419 175.839C298.803 174.355 306.457 169.84 316.039 166.522C318.509 165.663 324.031 163.755 326.469 164.699C328.494 165.473 331.579 167.879 331.43 169.999C331.345 171.324 328.483 172.723 327.296 173.317C325.802 174.059 323.491 175.182 321.837 174.981C320.184 174.779 317.693 172.649 317.693 172.649C317.693 172.649 297.298 184.627 285.394 186.524C273.491 188.422 257.58 184.107 257.58 184.107L261.099 173.2Z" fill="#7F3E3B"/>
<path d="M263.866 172.267L270.523 173.677C270.523 173.677 271.233 181.161 268.583 186.641L261.343 186.227L263.866 172.267Z" fill="#00743B"/>
<path opacity="0.5" d="M263.866 172.267L270.523 173.677C270.523 173.677 271.233 181.161 268.583 186.641L261.343 186.227L263.866 172.267Z" fill="white"/>
<path d="M267.173 174.938C267.279 173.99 267.09 173.032 266.63 172.195C266.171 171.358 265.465 170.684 264.608 170.264C258.248 167.328 243.599 161.476 241.542 169.267C239.072 178.648 242.602 187.478 262.032 187.287C263.125 187.252 264.167 186.815 264.959 186.06C265.751 185.306 266.237 184.286 266.325 183.196L267.173 174.938Z" fill="#00743B"/>
<path opacity="0.5" d="M267.173 174.938C267.279 173.99 267.09 173.032 266.63 172.195C266.171 171.358 265.465 170.684 264.608 170.264C258.248 167.328 243.599 161.476 241.542 169.267C239.072 178.648 242.602 187.478 262.032 187.287C263.125 187.252 264.167 186.815 264.959 186.06C265.751 185.306 266.237 184.286 266.325 183.196L267.173 174.938Z" fill="white"/>
<path d="M230.773 133.09C231.313 133.238 231.462 134.362 231.112 135.602C230.762 136.842 230.052 137.722 229.522 137.563C228.992 137.404 228.833 136.291 229.183 135.051C229.532 133.81 230.243 132.92 230.773 133.09Z" fill="#00743B"/>
<path opacity="0.3" d="M230.773 133.09C231.313 133.238 231.462 134.362 231.112 135.602C230.762 136.842 230.052 137.722 229.522 137.563C228.992 137.404 228.833 136.291 229.183 135.051C229.532 133.81 230.243 132.92 230.773 133.09Z" fill="black"/>
<path d="M251.029 127.493C251.029 127.493 254.591 124.09 250.51 124.164C246.429 124.239 235.543 126.168 231.716 131.987C227.889 137.807 229.479 148.947 235.712 149.011C235.712 149.011 238.839 139.057 243.556 134.393C248.273 129.729 251.029 127.493 251.029 127.493Z" fill="#00743B"/>
<path opacity="0.3" d="M230.72 139.386C230.42 141.308 230.739 143.275 231.631 145.003C232.523 146.731 233.941 148.131 235.68 149C235.68 149 238.564 139.842 242.952 134.987C238.966 134.383 231.451 133.98 230.72 139.386Z" fill="white"/>
<path d="M235.712 149.011C235.712 149.011 238.786 141.591 242.369 137.139C245.952 132.687 249.354 131.362 249.354 131.362C249.354 131.362 255.714 126.751 254.421 125.5C253.128 124.249 242.443 132.231 240.037 137.266C238.318 141.073 236.873 144.998 235.712 149.011Z" fill="#00743B"/>
<path opacity="0.3" d="M235.712 149.011C235.712 149.011 238.786 141.591 242.369 137.139C245.952 132.687 249.354 131.362 249.354 131.362C249.354 131.362 255.714 126.751 254.421 125.5C253.128 124.249 242.443 132.231 240.037 137.266C238.318 141.073 236.873 144.998 235.712 149.011Z" fill="black"/>
<path d="M237.154 154.979C237.885 155.436 238.701 155.744 239.552 155.884C240.404 156.024 241.275 155.994 242.115 155.795C244.372 155.254 244.394 152.954 242.835 151.417C241.436 150.028 238.595 148.629 236.762 149.997C236.367 150.299 236.055 150.695 235.853 151.148C235.651 151.602 235.566 152.099 235.605 152.594C235.644 153.089 235.806 153.567 236.076 153.983C236.347 154.4 236.717 154.742 237.154 154.979Z" fill="#7F3E3B"/>
<path d="M256.52 148.682C256.833 148.538 257.131 148.364 257.41 148.163C257.441 148.13 257.458 148.086 257.458 148.041C257.458 147.996 257.441 147.952 257.41 147.919C257.374 147.887 257.327 147.869 257.278 147.869C257.229 147.869 257.182 147.887 257.145 147.919C256.499 148.362 255.763 148.657 254.99 148.782C254.216 148.906 253.425 148.858 252.672 148.64C252.65 148.634 252.627 148.632 252.604 148.635C252.581 148.638 252.559 148.646 252.539 148.658C252.519 148.669 252.502 148.685 252.488 148.704C252.475 148.723 252.465 148.744 252.46 148.767C252.454 148.79 252.452 148.814 252.455 148.838C252.458 148.861 252.465 148.884 252.477 148.905C252.489 148.926 252.505 148.944 252.524 148.958C252.543 148.973 252.564 148.983 252.587 148.99C253.89 149.386 255.295 149.276 256.52 148.682Z" fill="#263238"/>
</svg>
